<svg xmlns="http://www.w3.org/2000/svg" enable-background="new 0 0 64 64" viewBox="0 0 64 64" id="CycleSchedule"><path fill="#894eef" d="M44.5,0.99V34.97h-0.01c-1.03,0-2.03,0.11-2.99,0.33V3.99H31l1.5-3H44.5z" class="color94c1ff svgShape"></path><polygon fill="#e6d7ff" points="32.5 .99 31 3.99 30.5 4.99 19.5 4.99 19 3.99 17.5 .99" class="colord7e9ff svgShape"></polygon><path fill="#894eef" d="M8.5,45.99h22.29c-0.21,0.96-0.32,1.97-0.32,3H5.5v-48h12l1.5,3H8.5V45.99z" class="color94c1ff svgShape"></path><path fill="#ffffff" d="M19.5,4.99h11l0.5-1h10.5V35.3c-5.34,1.15-9.54,5.351-10.71,10.69H8.5v-42H19L19.5,4.99z" class="colorffffff svgShape"></path><path fill="#e6d7ff" d="M44.5,34.97h-0.01c-1.03,0-2.03,0.11-2.99,0.33c-5.34,1.15-9.54,5.351-10.71,10.69
			c-0.21,0.96-0.32,1.97-0.32,3c0,7.74,6.271,14.02,14.021,14.02c7.74,0,14.01-6.279,14.01-14.02S52.24,34.98,44.5,34.97z" class="colord7e9ff svgShape"></path><g fill="#000000" class="color000000 svgShape"><path fill="#6811ff" d="M19.497 5.991c-.367 0-.72-.202-.896-.553l-2-4c-.247-.494-.047-1.095.447-1.342.493-.246 1.094-.047 1.342.447l2 4c.247.494.047 1.095-.447 1.342C19.8 5.957 19.647 5.991 19.497 5.991zM30.495 5.991c-.15 0-.303-.034-.446-.105-.494-.247-.694-.848-.447-1.342l2-4c.248-.494.848-.693 1.342-.447.494.247.694.848.447 1.342l-2 4C31.215 5.789 30.862 5.991 30.495 5.991z" class="color116fff svgShape"></path><path fill="#6811ff" d="M30.496,5.991h-11c-0.553,0-1-0.447-1-1s0.447-1,1-1h11c0.553,0,1,0.447,1,1S31.049,5.991,30.496,5.991z" class="color116fff svgShape"></path><path fill="#6811ff" d="M41.496 4.991h-10.5c-.553 0-1-.447-1-1s.447-1 1-1h10.5c.553 0 1 .447 1 1S42.049 4.991 41.496 4.991zM18.996 4.991h-10.5c-.553 0-1-.447-1-1s.447-1 1-1h10.5c.553 0 1 .447 1 1S19.549 4.991 18.996 4.991z" class="color116fff svgShape"></path><path fill="#6811ff" d="M30.496,49.991h-25c-0.553,0-1-0.447-1-1v-48c0-0.553,0.447-1,1-1h39c0.553,0,1,0.447,1,1v34
			c0,0.553-0.447,1-1,1s-1-0.447-1-1v-33h-37v46h24c0.553,0,1,0.447,1,1S31.049,49.991,30.496,49.991z" class="color116fff svgShape"></path><path fill="#6811ff" d="M30.82 46.991H8.496c-.553 0-1-.447-1-1v-42c0-.553.447-1 1-1s1 .447 1 1v41H30.82c.553 0 1 .447 1 1S31.373 46.991 30.82 46.991zM41.496 36.314c-.553 0-1-.447-1-1V3.991c0-.553.447-1 1-1s1 .447 1 1v31.323C42.496 35.867 42.049 36.314 41.496 36.314z" class="color116fff svgShape"></path><path fill="#6811ff" d="M15.494,39.992c-0.265,0-0.528-0.104-0.725-0.312l-0.949-0.999c-0.381-0.4-0.364-1.033,0.036-1.413
						c0.401-0.382,1.033-0.363,1.413,0.036l0.949,0.999c0.381,0.4,0.364,1.033-0.036,1.413
						C15.989,39.901,15.741,39.992,15.494,39.992z" class="color116fff svgShape"></path><path fill="#6811ff" d="M15.494 39.992c-.256 0-.512-.098-.707-.293-.391-.391-.391-1.023 0-1.414l3.002-3.001c.391-.391 1.023-.391 1.414 0s.391 1.023 0 1.414l-3.002 3.001C16.006 39.895 15.75 39.992 15.494 39.992zM32.496 36.993h-9c-.553 0-1-.447-1-1s.447-1 1-1h9c.553 0 1 .447 1 1S33.049 36.993 32.496 36.993zM28.494 39.992h-4.998c-.553 0-1-.447-1-1s.447-1 1-1h4.998c.553 0 1 .447 1 1S29.047 39.992 28.494 39.992zM15.494 31.996c-.265 0-.528-.104-.725-.312l-.949-.999c-.381-.4-.364-1.033.036-1.413.401-.382 1.033-.363 1.413.036l.949.999c.381.4.364 1.033-.036 1.413C15.989 31.905 15.741 31.996 15.494 31.996z" class="color116fff svgShape"></path><path fill="#6811ff" d="M15.494 31.996c-.256 0-.512-.098-.707-.293-.391-.391-.391-1.023 0-1.414l3.002-3.001c.391-.391 1.023-.391 1.414 0s.391 1.023 0 1.414l-3.002 3.001C16.006 31.898 15.75 31.996 15.494 31.996zM36.496 28.997h-13c-.553 0-1-.447-1-1s.447-1 1-1h13c.553 0 1 .447 1 1S37.049 28.997 36.496 28.997zM28.494 31.996h-4.998c-.553 0-1-.447-1-1s.447-1 1-1h4.998c.553 0 1 .447 1 1S29.047 31.996 28.494 31.996zM15.494 15.992c-.265 0-.528-.104-.725-.312l-.949-.999c-.381-.4-.364-1.033.036-1.413.401-.382 1.033-.363 1.413.036l.949.999c.381.4.364 1.033-.036 1.413C15.989 15.901 15.741 15.992 15.494 15.992z" class="color116fff svgShape"></path><path fill="#6811ff" d="M15.494 15.992c-.256 0-.512-.098-.707-.293-.391-.391-.391-1.023 0-1.414l3.002-3.001c.391-.391 1.023-.391 1.414 0s.391 1.023 0 1.414l-3.002 3.001C16.006 15.895 15.75 15.992 15.494 15.992zM36.496 12.993h-13c-.553 0-1-.447-1-1s.447-1 1-1h13c.553 0 1 .447 1 1S37.049 12.993 36.496 12.993zM28.494 15.992h-4.998c-.553 0-1-.447-1-1s.447-1 1-1h4.998c.553 0 1 .447 1 1S29.047 15.992 28.494 15.992z" class="color116fff svgShape"></path><g fill="#000000" class="color000000 svgShape"><path fill="#6811ff" d="M15.494,24c-0.265,0-0.528-0.104-0.725-0.312l-0.949-0.999c-0.381-0.4-0.364-1.033,0.036-1.413
						c0.401-0.381,1.033-0.364,1.413,0.036l0.949,0.999c0.381,0.4,0.364,1.033-0.036,1.413C15.989,23.909,15.741,24,15.494,24z" class="color116fff svgShape"></path><path fill="#6811ff" d="M15.494,24c-0.256,0-0.512-0.098-0.707-0.293c-0.391-0.391-0.391-1.023,0-1.414l3.002-3.001
						c0.391-0.391,1.023-0.391,1.414,0s0.391,1.023,0,1.414l-3.002,3.001C16.006,23.902,15.75,24,15.494,24z" class="color116fff svgShape"></path></g><g fill="#000000" class="color000000 svgShape"><path fill="#6811ff" d="M36.496,21.001h-13c-0.553,0-1-0.447-1-1s0.447-1,1-1h13c0.553,0,1,0.447,1,1
				S37.049,21.001,36.496,21.001z" class="color116fff svgShape"></path></g><g fill="#000000" class="color000000 svgShape"><path fill="#6811ff" d="M28.494,24h-4.998c-0.553,0-1-0.447-1-1s0.447-1,1-1h4.998c0.553,0,1,0.447,1,1S29.047,24,28.494,24z" class="color116fff svgShape"></path></g><g fill="#000000" class="color000000 svgShape"><path fill="#6811ff" d="M44.486,64.009c-8.28,0-15.018-6.737-15.018-15.018s6.737-15.018,15.018-15.018
				s15.018,6.737,15.018,15.018S52.767,64.009,44.486,64.009z M44.486,35.974c-7.178,0-13.018,5.84-13.018,13.018
				s5.84,13.018,13.018,13.018s13.018-5.84,13.018-13.018S51.664,35.974,44.486,35.974z" class="color116fff svgShape"></path></g><g fill="#000000" class="color000000 svgShape"><path fill="#6811ff" d="M39.507 56.992c-2.481 0-4.5-2.019-4.5-4.5s2.019-4.5 4.5-4.5 4.5 2.019 4.5 4.5S41.988 56.992 39.507 56.992zM39.507 49.992c-1.379 0-2.5 1.121-2.5 2.5s1.121 2.5 2.5 2.5 2.5-1.121 2.5-2.5S40.886 49.992 39.507 49.992zM49.506 56.992c-2.481 0-4.5-2.019-4.5-4.5s2.019-4.5 4.5-4.5 4.5 2.019 4.5 4.5S51.987 56.992 49.506 56.992zM49.506 49.992c-1.379 0-2.5 1.121-2.5 2.5s1.121 2.5 2.5 2.5 2.5-1.121 2.5-2.5S50.885 49.992 49.506 49.992z" class="color116fff svgShape"></path><path fill="#6811ff" d="M49.505,53.492c-0.435,0-0.835-0.286-0.961-0.726l-2.999-10.499c-0.151-0.531,0.156-1.084,0.688-1.236
				c0.526-0.145,1.084,0.155,1.236,0.688l2.999,10.499c0.151,0.531-0.156,1.084-0.688,1.236
				C49.688,53.479,49.597,53.492,49.505,53.492z" class="color116fff svgShape"></path><path fill="#6811ff" d="M49.506 42.993h-2.999c-.553 0-1-.447-1-1s.447-1 1-1h2.999c.553 0 1 .447 1 1S50.059 42.993 49.506 42.993zM44.508 53.492h-5c-.553 0-1-.447-1-1s.447-1 1-1h5c.553 0 1 .447 1 1S45.061 53.492 44.508 53.492zM41.506 48.992c-.419 0-.81-.265-.949-.685l-.998-2.998c-.174-.523.109-1.09.634-1.265.523-.173 1.09.109 1.265.634l.998 2.998c.174.523-.109 1.09-.634 1.265C41.717 48.976 41.61 48.992 41.506 48.992z" class="color116fff svgShape"></path><path fill="#6811ff" d="M39.507,53.492c-0.136,0-0.273-0.027-0.405-0.086c-0.505-0.225-0.731-0.815-0.508-1.32l2-4.497
				c0.225-0.505,0.817-0.73,1.32-0.508c0.505,0.225,0.731,0.815,0.508,1.32l-2,4.497C40.256,53.271,39.891,53.492,39.507,53.492z" class="color116fff svgShape"></path><path fill="#6811ff" d="M48.222 48.995h-6.714c-.553 0-1-.447-1-1s.447-1 1-1h6.714c.553 0 1 .447 1 1S48.774 48.995 48.222 48.995zM42.509 45.994h-3.002c-.553 0-1-.447-1-1s.447-1 1-1h3.002c.553 0 1 .447 1 1S43.062 45.994 42.509 45.994z" class="color116fff svgShape"></path><path fill="#6811ff" d="M44.508,53.492c-0.26,0-0.52-0.101-0.715-0.301c-0.387-0.396-0.379-1.028,0.016-1.414l2.708-2.646
				c0.397-0.387,1.03-0.379,1.414,0.016c0.387,0.396,0.379,1.028-0.016,1.414l-2.708,2.646
				C45.012,53.397,44.76,53.492,44.508,53.492z" class="color116fff svgShape"></path></g></g></svg>