<svg xmlns="http://www.w3.org/2000/svg" viewBox="0 0 64 64" id="FitnessGym"><g fill="#000000" class="color000000 svgShape"><path fill="#894eef" d="M32 7.179A10.969 10.969 0 0 1 40.618 3a11.1 11.1 0 0 1 11.046 11.148c.283 10.089-6.265 18.008-17.733 24.357a4.014 4.014 0 0 1-3.862 0C18.6 32.156 12.053 24.237 12.336 14.148A11.1 11.1 0 0 1 23.382 3 10.969 10.969 0 0 1 32 7.179Z" class="colorb1036a svgShape"></path><path fill="#282332" d="M11 45h41v8H11z" class="color232732 svgShape"></path><rect width="11" height="24" x="45" y="37" fill="#352e42" rx="2" class="color2e3442 svgShape"></rect><path fill="#282332" d="M56 41h3a2 2 0 0 1 2 2v12a2 2 0 0 1-2 2h-3V41Z" class="color232732 svgShape"></path><rect width="11" height="24" x="8" y="37" fill="#352e42" rx="2" transform="rotate(-180 13.5 49)" class="color2e3442 svgShape"></rect><path fill="#282332" d="M8 57H5a2 2 0 0 1-2-2V43a2 2 0 0 1 2-2h3v16Z" class="color232732 svgShape"></path><g fill="#120b1e" class="color1e120b svgShape"><path d="M2 23a1 1 0 0 0 1 1h10.419c2.728 5.774 8.12 10.925 16.165 15.38a5.026 5.026 0 0 0 4.832 0c8.049-4.457 13.442-9.611 16.169-15.38H57a1 1 0 0 0 0-2h-5.587a21.347 21.347 0 0 0 1.252-7.852A12.112 12.112 0 0 0 40.618 2 11.916 11.916 0 0 0 32 5.661 11.916 11.916 0 0 0 23.382 2a12.1 12.1 0 0 0-12.046 12.12A21.425 21.425 0 0 0 12.591 22H3a1 1 0 0 0-1 1Zm31.447 14.63a3.011 3.011 0 0 1-2.894 0C23.192 33.554 18.234 29.048 15.6 24h3.37a1.786 1.786 0 0 0 1.63-1.059l1.9-4.282 3.009 8.526a1.792 1.792 0 0 0 3.406-.144L31.9 15.589l3.217 14.991a1.791 1.791 0 0 0 3.434.19l3.808-11.424 1.834 3.669a1.776 1.776 0 0 0 1.595.985h2.621c-2.639 5.044-7.598 9.552-14.962 13.63ZM23.382 4a9.945 9.945 0 0 1 7.834 3.8 1.037 1.037 0 0 0 1.568 0A9.945 9.945 0 0 1 40.618 4a10.116 10.116 0 0 1 10.047 10.177A19.665 19.665 0 0 1 49.312 22h-3.39s-1.523-3.007-2.009-4.02a1.8 1.8 0 0 0-3.285.235c-.884 2.807-3.722 11.167-3.722 11.167l-3.238-15.109A1.791 1.791 0 0 0 30.2 14.2l-3.039 11.65-2.955-8.372a1.793 1.793 0 0 0-3.31-.13L18.829 22h-4.137a19.737 19.737 0 0 1-1.357-7.852A10.11 10.11 0 0 1 23.382 4Z" fill="#000000" class="color000000 svgShape"></path><path d="M59 40h-2v-1a3 3 0 0 0-3-3h-7a3 3 0 0 0-3 3v5H20v-5a3 3 0 0 0-3-3h-7a3 3 0 0 0-3 3v1H5a3 3 0 0 0-3 3v12a3 3 0 0 0 3 3h2v1a3 3 0 0 0 3 3h7a3 3 0 0 0 3-3v-5h24v5a3 3 0 0 0 3 3h7a3 3 0 0 0 3-3v-1h2a3 3 0 0 0 3-3V43a3 3 0 0 0-3-3ZM7 56H5a1 1 0 0 1-1-1V43a1 1 0 0 1 1-1h2Zm11 3a1 1 0 0 1-1 1h-7a1 1 0 0 1-1-1V39a1 1 0 0 1 1-1h7a1 1 0 0 1 1 1Zm26-7H20v-6h24Zm11 7a1 1 0 0 1-1 1h-7a1 1 0 0 1-1-1V39a1 1 0 0 1 1-1h7a1 1 0 0 1 1 1Zm5-4a1 1 0 0 1-1 1h-2V42h2a1 1 0 0 1 1 1Z" fill="#000000" class="color000000 svgShape"></path><circle cx="61" cy="23" r="1" fill="#000000" class="color000000 svgShape"></circle></g></g></svg>