<svg xmlns="http://www.w3.org/2000/svg" viewBox="0 0 100 100" id="Fitnesswatch"><path d="M57.2 33.2H36.7c-3 0-5.4 2.4-5.4 5.4v22.8c0 3 2.4 5.4 5.4 5.4h20.4c3 0 5.4-2.4 5.4-5.4V38.6c.1-3-2.3-5.4-5.3-5.4zM56.8 51h-3.1c-.5 0-.9-.3-1-.8l-.6-2.1-3.6 9.8c-.2.4-.5.7-.9.7h-.1c-.4 0-.8-.3-.9-.8l-2.9-12.5-2.2 4c-.2.3-.5.5-.9.5h-3.5c-.5 0-1-.4-1-1 0-.5.5-1 1-1H40l3.2-5.7c.2-.4.6-.6 1-.5.4.1.8.4.8.8l2.7 11.8 3.6-9.6c.1-.4.6-.7 1-.6.4 0 .8.3.9.8l1.2 4.5h2.3c.5 0 1 .4 1 1 .1.3-.4.7-.9.7z" fill="#894eef" class="color000000 svgShape"></path><path d="M70.6 44h-2v-8c0-4.5-3.2-8.2-7.5-9l-2.4-6.8c-.6-1.7-2.2-2.8-4-2.8H39.2c-1.8 0-3.4 1.1-4 2.8L32.8 27c-4.2.8-7.5 4.5-7.5 9v28.1c0 4.5 3.2 8.2 7.5 9l2.4 6.8c.6 1.7 2.2 2.8 4 2.8h15.5c1.8 0 3.4-1.1 4-2.8l2.4-6.8c4.2-.8 7.5-4.5 7.5-9v-12h2c2.2 0 4-1.8 4-4.1 0-2.2-1.8-4-4-4zM59.4 71.2H34.5c-3.9 0-7.1-3.2-7.1-7.1V35.9c0-3.9 3.2-7.1 7.1-7.1h24.9c3.9 0 7.1 3.2 7.1 7.1V64c.1 4-3.2 7.2-7.1 7.2z" fill="#894eef" class="color000000 svgShape"></path></svg>