<svg xmlns="http://www.w3.org/2000/svg" viewBox="0 0 512 512" id="FitnessPlace"><defs><linearGradient id="a" x1="256" x2="256" y1="12" y2="499.332" gradientUnits="userSpaceOnUse"><stop offset="0" stop-color="#5800ef" class="stopColor00efd1 svgShape"></stop><stop offset="1" stop-color="#894eef" class="stopColor00acea svgShape"></stop></linearGradient></defs><g fill="#000000" class="color000000 svgShape"><path fill="url(#a)" d="M391.34,305.245a169.241,169.241,0,0,0,35.524-104.307c0-94.214-76.649-170.864-170.864-170.864S85.136,106.724,85.136,200.938A169.241,169.241,0,0,0,120.66,305.245a172.12,172.12,0,0,0,86.084,59.342l6.309,9.3c-25.4,2.677-48.375,7.725-65.938,14.579-31.892,12.443-38.587,27.719-38.587,38.343,0,36.186,74.188,55.119,147.472,55.119s147.472-18.933,147.472-55.119c0-10.624-6.695-25.9-38.587-38.343-17.563-6.854-40.538-11.9-65.938-14.579l6.309-9.3A172.12,172.12,0,0,0,391.34,305.245Zm-286.2-104.307c0-83.187,67.677-150.864,150.864-150.864s150.864,67.677,150.864,150.864A151.253,151.253,0,0,1,296.341,346.346a10,10,0,0,0-5.607,4.022L256,401.559l-34.734-51.191a10,10,0,0,0-5.607-4.022A151.253,151.253,0,0,1,105.136,200.938ZM357.615,407.1c19.085,7.446,25.857,15.272,25.857,19.711,0,5.7-10.323,14.834-33.383,22.4-24.985,8.2-58.4,12.717-94.089,12.717s-69.1-4.516-94.089-12.717c-23.06-7.568-33.383-16.7-33.383-22.4,0-4.439,6.772-12.265,25.857-19.711,18.353-7.162,43.573-12.19,71.5-14.3l21.837,32.183a10,10,0,0,0,16.55,0L286.112,392.8C314.042,394.906,339.262,399.934,357.615,407.1Z"></path><path fill="url(#a)" d="M223,243.967V220h66v23.968A10.076,10.076,0,0,0,299.056,254h16.461C329.824,254,341,242.328,341,228.021V228h.611C355.918,228,368,216.231,368,201.924V187.465C368,173.157,355.918,162,341.611,162h-.267c-1.244-14-12.35-24-25.827-24H299.056A10.076,10.076,0,0,0,289,148.032V172H223V148.032A10.076,10.076,0,0,0,212.944,138H196.483c-13.475,0-24.581,10-25.827,24h-.267C156.082,162,144,173.155,144,187.463v14.461C144,216.231,156.082,228,170.389,228H171v.02c0,14.307,11.176,25.98,25.483,25.98h16.461A10.077,10.077,0,0,0,223,243.967Zm125-56.5v14.459A6.458,6.458,0,0,1,341.611,208H341V182h.611C344.891,182,348,184.186,348,187.465ZM309,158h6.517c3.279,0,5.483,2.7,5.483,5.979v64.042c0,3.279-2.2,5.979-5.483,5.979H309ZM170.389,208A6.458,6.458,0,0,1,164,201.924V187.463c0-3.279,3.109-5.463,6.389-5.463H171v26ZM203,234h-6.517c-3.279,0-5.483-2.7-5.483-5.98V163.98c0-3.28,2.2-5.98,5.483-5.98H203Zm86-42v8H223v-8Z"></path></g></svg>