<svg xmlns="http://www.w3.org/2000/svg" viewBox="0 0 32 32" id="Workout"><g fill="#894d93" class="color000000 svgShape"><path d="M8.4 16.917a2.645 2.645 0 00-3.658 0l-1.39 1.39a2.589 2.589 0 000 3.657L8.388 27a2.592 2.592 0 003.658 0l1.389-1.39a2.584 2.584 0 000-3.657zm4.269 7.927l-1.39 1.389a1.511 1.511 0 01-2.132 0L4.119 21.2a1.511 1.511 0 010-2.134l1.39-1.389a1.545 1.545 0 012.132 0l5.032 5.033a1.506 1.506 0 010 2.132zM21.523 13.86a2.586 2.586 0 003.658 0l1.39-1.389a2.587 2.587 0 000-3.657L21.539 3.782a2.647 2.647 0 00-3.658 0l-1.39 1.39a2.589 2.589 0 000 3.657zm-4.27-7.926l1.391-1.39a1.545 1.545 0 012.132 0l5.032 5.032a1.508 1.508 0 010 2.133l-1.39 1.39a1.547 1.547 0 01-2.132 0L17.253 8.067A1.51 1.51 0 0117.253 5.934z" fill="#894d93" class="color000000 svgShape"></path><rect width="8.09" height="1.078" x="10.918" y="14.85" transform="rotate(-45.037 14.964 15.389)" fill="#894d93" class="color000000 svgShape"></rect><path d="M29.2,22.925a.645.645,0,0,0-.357-1.1l-2.762-.4a.642.642,0,0,1-.486-.353l-1.236-2.5a.645.645,0,0,0-1.157,0l-1.235,2.5a.643.643,0,0,1-.486.353l-2.762.4a.645.645,0,0,0-.358,1.1l2,1.949a.648.648,0,0,1,.186.571L20.078,28.2a.645.645,0,0,0,.936.68l2.471-1.3a.638.638,0,0,1,.6,0l2.471,1.3a.645.645,0,0,0,.936-.68l-.472-2.751a.645.645,0,0,1,.186-.571Z" fill="#894d93" class="color000000 svgShape"></path></g></svg>