<svg xmlns="http://www.w3.org/2000/svg" enable-background="new 0 0 66 66" viewBox="0 0 66 66" id="jogging">
  <path fill="#0E151F" d="M40.7964 55.7569c0 0 .7722 2.8335 1.4242 3.5252.4723.501 2.3555 1.1177 2.1157 1.7631-.4636 1.248-4.1188.4763-5.3246-.0882-.4217-.1974-.8147-1.1752-1.2165-1.4105-.2484-.1455-.8642-.1148-1.1284-.2292-.4497-.1948-1.4506-.8147-1.4634-1.3047-.0246-.9444 2.3998-2.9188 2.3998-2.9188l2.6779.327L40.7964 55.7569zM20.725 58.4049c0 0-1.1973 2.4269-1.2178 3.3079-.019.8148.9718 3.0752.1769 3.2553-1.7692.401-2.9015-3.0975-2.9251-4.423-.0048-.2677.2757-.7896.2123-1.0497-.1017-.4171-.8209-1.0194-.9554-1.4272-.1951-.5915-.5112-2.0057-.1179-2.4887.4915-.6036 3.0755-.4858 3.0755-.4858l1.3003 1.3232L20.725 58.4049z"></path>
  <path fill="#F6A98D" d="M42.7765 50.7742c0 0-1.8184 2.7833-2.0499 3.8485-.0603.2776.0698 1.1342.0698 1.1342-.5806.1096-.9242.6638-1.5006.855-.3672.1218-1.2628.0825-1.5355-.1919-.2353-.2368-.1571-1.3261-.1571-1.3261.5936-1.3208 1.1539-3.6126 1.7091-6.0517 0 0 2.2692-1.0674 2.2692-.6486S42.7765 50.7742 42.7765 50.7742zM24.8785 52.289c0 0-3.017 3.4604-3.7281 4.804-.1613.3047-.4254 1.3119-.4254 1.3119-.662-.0198-1.6884-.1758-1.7514-1.1868-.0516-.8271.3685-1.4956 0-2.1243.958-1.2243 1.8764-3.0674 2.7773-5.1818l2.9525.2002L24.8785 52.289z"></path>
  <path fill="#672864" d="M36.7723,38.3374c-1.394,2.6966-4.1071,5.6576-7.0147,8.7222c-1.2306,1.2971-4.8791,5.2294-4.8791,5.2294
		c-1.2216,0.1374-2.2267-0.8496-3.1276-2.377c1.2769-2.0491,3.4246-3.8486,5.1793-6.4053c1.3692-1.995,4.032-8.7988,4.032-8.7988
		s3.4993-1.2346,3.5494-1.0845C34.5616,33.7735,36.7723,38.3374,36.7723,38.3374z"></path>
  <path fill="#F7B198" d="M49.3405,15.8629c0,0,0.0162-0.5552,0.0856-0.7237c0.1688-0.4099,0.8643-1.1053,0.8638-1.5485
		c-0.001-0.8231-0.7911-2.7962-1.6108-2.8714c-0.6176-0.0567-1.439,1.3043-1.5874,1.9065c-0.3286,1.333,0.2521,2.6175,0.2912,2.8697
		c0,0,0.5258,0.811,0.557,0.8655c0.0311,0.0545,1.4163,0,1.4163,0L49.3405,15.8629z"></path>
  <path fill="#9E5525" d="M41.7512,2.7499c0.2803-3.1112-6.9872-1.6565-7.1544,1.1143c-0.1016,1.6844,0.6768,4.0612,2.2434,5.1148
		l3.1874-2.3703L41.7512,2.7499z"></path>
  <path fill="#8A3686" d="M30.8139,27.87c0,0-1.916,3.0143-1.5305,4.7176c0.5316,2.3494,1.0382,2.8607,1.7878,3.3741
		c2.8296,1.9378,11.1737,5.4785,11.1909,5.7579c0.0826,1.3456-1.7589,3.6423-2.3151,4.8703
		c-0.2613,0.5769-0.6345,2.4523-0.6345,2.4523c1.0715,0.8789,2.2144,1.4993,3.4641,1.7321c0,0,5.3505-8.0944,5.1619-9.209
		c-0.5457-3.2248-8.34-10.0798-8.34-10.0798l-6.2538-3.8623L30.8139,27.87z"></path>
  <path fill="#CE5D27" d="M43.3495,14.566c0.0477,0.2924,3.5608,4.0699,3.5608,4.0699l0.3494-3.2356
		c0.8291,0.6693,1.6544,0.775,2.4761,0.3494c0,0,0.5165,7.3673-1.7621,8.2484c-1.3446,0.5199-4.7267-3.3034-4.7267-3.3034
		s-1.4862-6.1275-1.3799-6.1286C41.9734,14.5648,43.3495,14.566,43.3495,14.566z"></path>
  <path fill="#F6A98D" d="M42.0041,9.5674c0.4194-0.4134,0.0298-1.8287,0.3366-2.3314c0.0912-0.1494,0.5783-0.1277,0.6358-0.293
		c0.1515-0.4358-0.6898-1.2079-0.8353-1.6457c-0.2081-0.626,0.0945-2.2317-0.4531-2.5994
		c-0.4176-0.2804-1.7391-0.0191-1.9655,0.4301c-0.1025,0.2033,0.2608,0.676,0.187,0.8914
		c-0.1159,0.3386-1.0784,0.9163-1.0784,0.9413c0,0.2934,0.2357,0.8642-0.7231,0.6608c-0.6639-0.1409-1.1329-0.6194-1.4836-0.3802
		c-0.3515,0.2397-0.4265,0.6393-0.2955,1.2197c0,0,0.8286,1.4047,0.8551,1.4608s1.0799,1.3714,1.1111,1.3714
		C38.605,9.2931,41.3162,10.2456,42.0041,9.5674z"></path>
  <path fill="#9E5525" d="M34.9503,5.7495c-0.5957-0.5952-0.6201,2.5511-2.8375,0.671c0.0712,0.6757,0.5416,1.2941,1.1742,1.5425
		c-1.1558,0.3061-2.2953-0.5824-2.2772-1.7786c0.0079-0.6058,0.6064-2.3055,1.3794-2.5124
		c0.3655-0.0975,0.7459,0.0572,1.0955,0.2052c0.3486,0.1481,0.7356,0.2933,1.0964,0.1771L34.9503,5.7495z"></path>
  <path fill="#F6A98D" d="M40.3997,10.3427V9.7756c-1.209-0.4123-2.1381-1.1915-2.8556-2.248
		c-0.4506-0.0207-0.8511-0.4098-1.2152-1.0666l0.5113,2.5181l0.4946,1.0329c0,0,0.9451,0.5333,1.0295,0.5333
		S40.3997,10.3427,40.3997,10.3427z"></path>
  <path fill="#F36C21" d="M43.5445,17.3828c0.1414,3.68-1.3199,6.242-1.9117,8.2831c-0.4292,1.4802-2.0345,5.8195-2.0345,5.8195
		c-2.9182-1.8433-5.8429-3.0034-8.7845-3.6154c0,0,1.2623-2.489,1.4328-3.2949c0.5339-2.5249-1.2592-9.8214,0.8087-12.7063
		c0.5267-0.7347,2.5875-1.0826,3.1365-1.8011c0.1986-0.2599,0.1593-1.2988,0.1593-1.2988c1.7067,0.7288,3.579,1.5947,4.3744,1.5687
		c0,0-0.7248,1.4329-0.4901,1.8498c0.3664,0.6509,2.2594,0.6654,2.7082,1.2623C43.5408,14.2453,43.5063,16.3889,43.5445,17.3828z"></path>
  <path fill="#F7B198" d="M29.5842,26.0865c0,0,0.3714,0.4302,0.534,0.522c0.3043,0.1718,1.0261,0.2662,1.323,0.4504
		c0.506,0.314,1.6702,1.6608,1.6796,1.689s0.3373,0.6702,0.2158,0.8539c-0.4312,0.6516-2.3712,0.8011-3.087,0.4879
		c-0.2559-0.112-0.4509-0.7073-0.6209-0.9289c-0.3235-0.4219-1.04-0.1314-1.6499-1.3418c-0.0892-0.1771-0.0893-0.7882-0.0893-0.7882
		s0.4271-1.1354,0.4552-1.1354C28.373,25.8954,29.5842,26.0865,29.5842,26.0865z"></path>
  <path fill="#F68938" d="M35.5354,13.2333c-0.203-1.6913-2.0664-1.4612-2.8414-1.3361c-2.8864,0.4661-9.6677,5.3035-9.6911,6.3085
		c-0.0413,1.7759,4.668,8.9469,4.668,8.9469l2.1794-1.2143c0,0-3.7131-4.941-2.839-6.6502c0.7933-1.5512,5.0987-1.2558,6.596-2.2494
		C34.496,16.449,35.7713,15.1988,35.5354,13.2333z"></path>
</svg>
