<svg xmlns="http://www.w3.org/2000/svg" viewBox="0 0 303.12 285.82" id="LotusYogaPose"><g fill="#000000" class="color000000 svgShape"><g fill="#000000" class="color000000 svgShape"><rect width="50.88" height="48.12" x="68.46" y="15.55" fill="none" stroke="#efbff7" stroke-miterlimit="10" stroke-width="5" rx="7.69" ry="7.69" class="colorStrokef7bfbf svgStroke"></rect><rect width="50.88" height="48.12" x="68.46" y="75.05" fill="none" stroke="#efbff7" stroke-miterlimit="10" stroke-width="5" rx="7.69" ry="7.69" class="colorStrokef7bfbf svgStroke"></rect><path fill="#edc6f4" d="m218.99,285.82h-83.3c-5.43-7.64-3.87-18.17-.38-26.87,11.53-28.73,34.7-52.59,63.08-64.96,5.74-2.5,11.84-4.58,18.1-4.41,9.72.26,18.48,5.87,25.9,12.15,7.22,6.12,13.82,13.17,18.22,21.55,4.4,8.38,6.48,18.21,4.48,27.46-2.33,10.83-10.05,19.96-19.38,25.92-9.34,5.96-15.65,9.15-26.73,9.15Z" class="colorc6f4d2 svgShape"></path><path fill="#9a55a5" d="m55.61,285.69c-29.22-16.39-47.7-52.89-44.71-86.25.75-8.41,2.94-17.1,8.64-23.33,5.09-5.56,12.4-8.53,19.69-10.46,30.33-8.01,62.55-.58,92.16,9.8,10.73,3.76,21.65,8.11,29.76,16.08,8.35,8.2,12.98,19.66,14.48,31.27,1.5,11.61.07,23.41-2.34,34.86-1.37,6.49-3.11,13.06-6.88,18.52-3.77,5.46-8.91,9.64-15.54,9.64l-95.26-.12Z" class="colora59a55 svgShape"></path><g fill="#000000" class="color000000 svgShape"><path fill="#efbff7" d="M158.17 75.02c8.79-.34 17.41 3.45 24.08 9.19 6.66 5.74 11.54 13.3 15.34 21.23 5.41 11.25 8.85 23.43 10.13 35.85-.83.33-1.9.65-2.73.98.69-.35 1.58-.01 2.07.58s.68 1.38.83 2.15c1.08 5.72.36 11.76-2.03 17.07-6.13-5.03-10.79-11.84-13.08-19.43 1.6-.53 3.15-1.62 4.38-2.79-2.14.24-4.33-.09-6.31-.93-4.96-11.64-10.05-23.19-15.01-34.83-4.42-10.35-9.63-21.18-17.67-29.07zM211.77 136.29c-13.58-44.26-11.95-93.04 4.57-136.29 3.39 11.5 5.29 23.62 6.2 35.58 2.6 34.08.97 68.61-10.77 100.71zM222.31 162.03c-3.27-6.7-4.36-14.43-3.09-21.77 1.5-.15 3-.29 4.5-.44-1.39 0-2.54-1.22-2.93-2.55s-.18-2.76.05-4.14c2.16-12.9 6.12-25.49 11.72-37.31 5.19-10.97 11.84-23.47 21.98-30.64 7.51-5.32 17.33-8.03 26.5-8.22-16.27 18.61-25.58 41.69-34.48 64.76-1.88 4.87-3.75 9.74-5.63 14.61-2.47-.05-5.71-.29-8.18-.34 1.51 1.26 3.3 2.58 4.8 3.84-4.04 8.35-8.67 15.67-15.24 22.2z" class="colorf7bfbf svgShape"></path><path fill="none" stroke="#81478b" stroke-linecap="round" stroke-linejoin="round" d="M221.46 171.29s15.53-86.64 43.24-103.14M213.13 172.17s-2.25-143.47 1.1-148.76M206.64 171.29s-8.29-66.18-36.53-89.65" class="colorStroke8b4747 svgStroke"></path><polygon fill="#efbff7" points="192.52 192.76 235.58 192.76 231.7 285.82 196.4 285.82 192.52 192.76" class="colorf7bfbf svgShape"></polygon><polygon fill="#efbff7" points="192.52 192.76 235.58 192.76 231.7 178.76 196.4 178.76 192.52 192.76" class="colorf7bfbf svgShape"></polygon><polygon fill="#efbff7" points="192.52 169.4 235.58 169.4 231.7 178.76 196.4 178.76 192.52 169.4" class="colorf7bfbf svgShape"></polygon></g><line x1="302.62" x2=".5" y1="285.32" y2="285.32" fill="none" stroke="#81478b" stroke-linecap="round" stroke-linejoin="round" class="colorStroke8b4747 svgStroke"></line><g fill="#000000" class="color000000 svgShape"><g fill="#000000" class="color000000 svgShape"><path fill="#e594f2" d="m176.36,225.89c-1.22-5.62,3.34-14.44,3.65-16.11.11-.6.46-2.46.86-4.58-.57-.16-1.06-.7-1.02-1.31.02-.41.03-.82,0-1.23,0-.09-.01-.18-.02-.28,0-.02-.01-.11-.02-.17,0-.05-.02-.13-.02-.14-.01-.09-.03-.17-.05-.26-.06-.32-.14-.64-.24-.95-.05-.16-.1-.32-.16-.48-.02-.04-.12-.3-.13-.33-.54-1.22-1.3-2.33-2.1-3.39-.04-.05-.2-.26-.21-.28-.07-.09-.14-.18-.21-.26-.19-.24-.38-.48-.56-.72-.42-.54-.84-1.08-1.25-1.63-.75-1.02-1.44-2.09-1.97-3.24-1.31-2.88-1.99-6.01-2.4-9.12-.8-6.01-.49-12.1-.06-18.13-.21-.1-.42-.21-.63-.32-6.23-3.19-6.54-12.31-6.54-12.31l-17.48-.91s.46,3.34-.46,7.6c-.91,4.26-6.84,5.47-8.21,6.54s-2.28,9.58-3.8,13.22c-1.52,3.65-2.43,7.6-4.86,12.92-2.43,5.32-1.82,9.73-1.82,9.73,0,0,3.19,6.23,3.5,9.73.3,3.5,3.5,11.86,3.8,15.05.3,3.19-2.89,8.51-5.32,12.62-2.43,4.1-4.41,15.35-4.41,15.35,1.22-.15,17.94,5.47,24.93,8.21,6.99,2.74,17.79-.61,23.41-3.65,5.62-3.04,12.77-4.56,12.77-4.56,0,0-1.06-5.47-3.19-11.4-2.13-5.93-4.56-9.58-5.78-15.2Z" class="colorf29494 svgShape"></path><g fill="#000000" class="color000000 svgShape"><path fill="#ffffff" d="m154.57,185.66c-3.38,0-9.49-1.01-12.43-7.79-2.45-5.66-1.84-12.36-1.41-15.23,2.12-1.02,4.53-2.54,5.11-5.27.11-.5.21-1.04.29-1.62.39-2.55.31-4.59.24-5.56l16.45.86c.08.93.34,3.14,1.23,5.52,1.06,2.83,2.64,4.94,4.7,6.27.02,1.73-.2,3.68-.49,6.11-.17,1.46-.36,3.11-.54,5.02-.57,6.31-3.77,10.12-9.53,11.32-1.2.25-2.42.37-3.63.37Z" class="colorffffff svgShape"></path><path fill="#894d93" d="m146.9,150.71l15.46.8c.12,1.11.43,3.1,1.22,5.22,1.06,2.83,2.63,4.97,4.67,6.37,0,1.64-.22,3.49-.48,5.78-.17,1.46-.36,3.12-.54,5.04-.55,6.15-3.54,9.71-9.14,10.87-1.17.24-2.36.36-3.53.36-3.26,0-9.15-.97-11.97-7.49-2.33-5.38-1.83-11.74-1.41-14.7,2.16-1.07,4.54-2.67,5.14-5.49.12-.53.21-1.07.29-1.66,0-.01,0-.02,0-.04.33-2.15.33-3.95.27-5.06m-.27,4.95h0,0m-.82-6.01s.35,2.54-.18,6.01h0c-.07.52-.16,1.05-.28,1.59-.55,2.59-2.96,4.05-5.07,5.04-.42,2.64-1.19,9.79,1.4,15.77,2.59,5.98,7.87,8.09,12.89,8.09,1.28,0,2.54-.14,3.73-.38,5.88-1.22,9.33-5.07,9.93-11.76.49-5.33,1.1-8.6,1.02-11.46-2.44-1.48-3.88-3.89-4.73-6.17-1.14-3.03-1.23-5.82-1.23-5.82l-17.48-.91h0Z" class="color8b4747 svgShape"></path></g><path fill="#e063f5" d="m226.81,255.98c-14.8-7.09-41.48-3.49-41.48-3.49,0-.08-.01-.16-.02-.24-.01,0-.02,0-.03,0-.23-1.11-1.28-5.96-3.14-11.16-.98-2.72-2.01-4.95-2.97-7.12-3.26.8-6.61,1.35-9.96,1.72-1.4-.04-2.81,0-4.21,0-2.22.02-4.42-.15-6.64-.23-3.42-.13-6.83.09-10.23.39-8.27-.64-14.79-1.88-17.34-2.42-.71,1.28-1.46,2.54-2.15,3.71-2.08,3.51-3.82,12.24-4.29,14.7-.02,0-.04.01-.06.02-.04.41-.06.64-.06.64,0,0-22.88-1.38-27.94-1.58-5.07-.2-33.24,3.85-25.54,20.27,7.7,16.42,42.97,13.99,52.7,13.99s30.61-.61,45.2-.81c14.59-.2,38.71,1.62,44.79,1.01,6.08-.61,16.01-3.04,18.44-5.27,2.43-2.23,9.73-17.03-5.07-24.12Z" class="colorf56d63 svgShape"></path><path fill="#ffffff" stroke="#81478b" stroke-linecap="round" stroke-linejoin="round" d="m226.81,255.98c-14.8-7.09-41.48-3.49-41.48-3.49,0-.08-.01-.16-.02-.24-.01,0-.02,0-.03,0-.23-1.11-1.28-5.96-3.14-11.16-.98-2.72-2.01-4.95-2.97-7.12-3.26.8-6.61,1.35-9.96,1.72-1.4-.04-2.81,0-4.21,0-2.22.02-4.42-.15-6.64-.23-3.42-.13-6.83.09-10.23.39-8.27-.64-14.79-1.88-17.34-2.42-.71,1.28-1.46,2.54-2.15,3.71-2.08,3.51-3.82,12.24-4.29,14.7-.02,0-.04.01-.06.02-.04.41-.06.64-.06.64,0,0-22.88-1.38-27.94-1.58-5.07-.2-33.24,3.85-25.54,20.27,7.7,16.42,42.97,13.99,52.7,13.99s30.61-.61,45.2-.81c9.71-.13,19.42.42,29.11.8,5.75.23,11.76.29,17.57-.36,4.99-.56,12.94-1.26,16.71-4.93,3.05-2.97,4.24-8.77,3.67-12.89-.71-5.12-4.37-8.82-8.89-10.99Z" class="colorffffff svgShape colorStroke8b4747 svgStroke"></path><path fill="#894d93" d="M235.64 266.59c-.65-3.91-3.06-7.85-8.83-10.61-3.44-1.65-7.52-2.72-11.76-3.39 2.16 1.21 5.85 3.47 6.91 5.37 1.39 2.5 9.5 9.82 13.68 8.63zM91.23 261.91s.22-.05.65-.14c.42-.08 1.05-.2 1.85-.32.8-.11 1.78-.24 2.9-.33 1.12-.09 2.4-.17 3.79-.17 1.39 0 2.9.04 4.49.21.8.08 1.61.2 2.44.33.83.15 1.67.32 2.52.54 1.68.44 3.42.97 5.12 1.67.85.35 1.7.74 2.52 1.14.83.4 1.64.8 2.48 1.13.83.34 1.69.63 2.55.88.87.25 1.74.47 2.62.66.88.2 1.75.37 2.63.54.87.17 1.73.35 2.58.51.85.17 1.68.34 2.49.51.81.17 1.61.34 2.39.5.78.16 1.53.32 2.26.47.73.16 1.43.31 2.11.45 1.35.29 2.59.55 3.69.78 1.1.23 2.06.43 2.85.58.79.15 1.41.27 1.84.33.43.06.66.09.66.09 0 0-.06 0-.17 0-.11 0-.28 0-.49-.02-.43-.03-1.07-.08-1.87-.17-.8-.09-1.78-.21-2.89-.37-.56-.08-1.15-.17-1.77-.26-.62-.1-1.28-.2-1.96-.31-.68-.11-1.39-.23-2.13-.34-.73-.13-1.49-.26-2.28-.39-.78-.13-1.58-.27-2.4-.41-.82-.14-1.66-.29-2.51-.44-.85-.15-1.71-.31-2.59-.46-.87-.15-1.77-.32-2.66-.51-.9-.19-1.8-.41-2.69-.66-.9-.26-1.79-.55-2.67-.91-.88-.35-1.72-.77-2.54-1.17-.82-.41-1.63-.8-2.45-1.14-.82-.34-1.65-.66-2.48-.94-.83-.28-1.66-.54-2.49-.78-.82-.23-1.63-.43-2.43-.6-.8-.16-1.6-.3-2.37-.41-1.55-.21-3.04-.34-4.41-.4-1.37-.06-2.63-.06-3.75-.04-1.12.03-2.1.08-2.9.13-.8.06-1.43.11-1.86.16-.43.05-.66.08-.66.08zM164.81 269.36s.71-.06 1.96-.16c.62-.05 1.38-.12 2.25-.19.87-.08 1.85-.17 2.91-.27.53-.05 1.09-.11 1.66-.17.29-.03.58-.06.87-.09.3-.04.6-.07.9-.11.15-.02.31-.04.46-.05.15-.02.31-.04.46-.06.31-.04.63-.08.94-.12.32-.05.64-.1.96-.15.16-.02.32-.05.49-.07.16-.03.32-.06.49-.09.16-.03.33-.06.49-.09l.25-.04.25-.05c.33-.07.66-.14.99-.21.32-.09.65-.17.98-.26.16-.05.33-.1.49-.15.16-.05.32-.11.48-.16 1.3-.46 2.63-1 3.97-1.51 1.35-.5 2.7-.99 4.07-1.4.68-.21 1.36-.4 2.04-.56.17-.04.34-.08.51-.12.17-.04.34-.08.51-.11.34-.08.67-.14 1.01-.2 1.34-.25 2.65-.4 3.9-.46.31-.02.62-.02.92-.02.3 0 .6 0 .9.01.15 0 .29 0 .44.01.14 0 .29.02.43.03.14.01.28.02.42.03.07 0 .14.01.21.02.07 0 .14.02.2.02 1.08.1 2.06.32 2.92.53.21.06.42.12.62.17.1.03.2.06.29.08.09.03.19.06.28.09.18.06.35.12.52.18.08.03.16.06.24.08.08.03.15.06.23.09.29.12.55.22.78.32.22.11.41.2.56.27.3.15.46.23.46.23 0 0-.17-.06-.49-.17-.16-.05-.35-.12-.58-.2-.23-.07-.5-.15-.8-.24-.6-.17-1.34-.34-2.19-.5-.21-.04-.43-.07-.66-.1-.23-.03-.46-.07-.7-.09-.24-.02-.49-.05-.74-.07-.25-.01-.51-.03-.78-.04-1.06-.04-2.2-.02-3.41.09-1.21.11-2.47.31-3.76.59-.32.07-.65.14-.97.23-.16.04-.33.08-.49.12-.16.04-.33.09-.49.13-.33.09-.66.18-.99.28-.33.09-.66.2-.99.3-1.33.42-2.66.91-3.99 1.41-1.34.5-2.66 1.03-4.02 1.49-.17.06-.35.11-.52.17l-.25.07-.13.04-.06.02h-.03s-.02.02-.02.02h-.02c-.35.09-.7.17-1.04.25-.35.07-.69.13-1.03.19l-.26.05c-.08.01-.17.02-.25.04-.17.02-.34.05-.51.07-.17.02-.34.05-.5.07-.17.02-.33.04-.5.06-.33.04-.66.07-.98.11-.32.03-.64.06-.96.09-.16.01-.32.03-.47.04-.16.01-.31.02-.47.03-.31.02-.61.04-.91.06-.3.02-.59.03-.88.05-.58.03-1.14.05-1.68.07-.27.01-.53.02-.79.02-.26 0-.51.01-.75.02-.49 0-.96 0-1.39.01-.44 0-.85 0-1.22 0-.38 0-.73-.01-1.04-.01-.63 0-1.12-.03-1.46-.04-.34-.01-.51-.02-.51-.02z" class="color8b4747 svgShape"></path><path fill="none" d="m124.22,252.49s5.78-.3,12.46,2.43c6.69,2.74,13.07,5.62,15.96,6.23"></path><path fill="#894d93" d="M161.46 262.37s.04 0 .11-.03c.07-.02.18-.05.31-.09.27-.08.67-.22 1.16-.42.49-.2 1.09-.46 1.76-.76.67-.31 1.43-.68 2.25-1.08.82-.4 1.7-.85 2.64-1.32.94-.47 1.93-.97 2.96-1.47 1.03-.51 2.1-1.02 3.19-1.53 1.09-.51 2.21-1.01 3.35-1.48.57-.23 1.14-.46 1.72-.68.58-.21 1.15-.42 1.73-.6 1.16-.38 2.32-.69 3.46-.92.28-.06.57-.11.85-.15.29-.05.57-.08.84-.12.55-.07 1.1-.13 1.63-.17 1.06-.08 2.06-.12 2.98-.13.92-.01 1.76 0 2.51.02.75.02 1.4.05 1.93.08.53.03.95.06 1.24.07.29.02.44.03.44.03 0 0-.15.01-.44.03-.29.02-.71.05-1.24.08-.53.03-1.18.08-1.92.12-.74.05-1.58.11-2.49.19-.91.08-1.89.18-2.92.32-.51.07-1.04.15-1.58.24-.27.05-.54.09-.8.15-.27.06-.54.11-.82.18-.14.03-.27.07-.41.1-.14.04-.27.07-.41.11-.28.07-.55.16-.83.24-.56.17-1.12.35-1.68.54-1.12.39-2.25.82-3.37 1.29-1.12.46-2.23.95-3.33 1.44-1.1.49-2.17.98-3.22 1.44-2.09.94-4.05 1.8-5.75 2.49-.43.17-.84.33-1.23.48-.39.15-.77.28-1.12.41-.71.25-1.33.44-1.85.58-.52.14-.94.22-1.22.27-.14.02-.25.04-.33.04-.07 0-.11.01-.11.01zM117.05 252.13s.13-.02.36-.04c.12-.01.27-.02.44-.04.17-.02.37-.03.59-.04.45-.03.99-.05 1.61-.06.62 0 1.33 0 2.09.03.38.01.78.04 1.2.07.21.01.42.04.63.06.21.02.43.04.65.07.22.03.44.06.67.08.23.03.45.07.68.11.12.02.23.04.35.06.12.02.23.05.35.07.23.05.47.09.71.15.24.06.48.12.72.18.06.02.12.03.18.05l.18.05c.12.03.23.07.35.1.12.03.24.07.35.1.12.04.24.07.36.11.24.08.48.15.72.23.96.31 1.92.66 2.88 1.03.95.37 1.9.76 2.82 1.17.46.2.91.41 1.36.62.45.21.89.42 1.31.63.86.42 1.68.85 2.45 1.27.77.42 1.49.81 2.16 1.17.67.37 1.28.71 1.82 1 .54.3 1.01.57 1.4.79.39.22.69.4.9.51.21.12.32.19.32.19 0 0-.12-.04-.34-.13-.22-.09-.55-.21-.97-.37-.41-.16-.92-.36-1.49-.6-.57-.24-1.22-.51-1.92-.81-.7-.3-1.46-.64-2.25-1-.79-.36-1.63-.74-2.49-1.13-.22-.1-.44-.19-.66-.29-.22-.1-.44-.19-.67-.29-.45-.19-.9-.38-1.36-.58-.92-.38-1.85-.76-2.79-1.13-.94-.37-1.88-.72-2.82-1.04-.93-.32-1.87-.64-2.76-.89-.9-.24-1.79-.44-2.64-.59-.85-.15-1.66-.28-2.41-.38-.19-.02-.37-.05-.55-.07-.18-.02-.36-.04-.53-.06-.34-.04-.67-.07-.98-.11-.61-.06-1.15-.11-1.59-.15-.44-.03-.79-.06-1.03-.08-.24-.02-.37-.03-.37-.03zM128.63 237.14c-.19.31-.37.67-.55 1.05 4.7 2.04 25.98 10.03 53.42 1.22-.78-1.99-1.59-3.74-2.34-5.44-3.26.8-6.61 1.35-9.96 1.72-1.4-.04-2.81 0-4.21 0-2.22.02-4.42-.15-6.64-.23-3.42-.13-6.83.09-10.23.39-8.27-.64-14.79-1.88-17.34-2.42-.71 1.28-1.46 2.54-2.15 3.71z" class="color8b4747 svgShape"></path><path fill="#ffffff" stroke="#81478b" stroke-linecap="round" stroke-linejoin="round" d="m148.31,274.05c.18-1.01.88-1.83,1.82-2.22,1-.42,2.34-1.22,3.13-2.62,1.37-2.43,5.93-6.08,9.58-2.58,3.65,3.5,1.06,7.14,6.69,7.45,5.62.3,10.03-1.22,12.77,2.74,0,0,8.21,1.06,6.84,8.06,0,0-4.26-1.52-6.69-.76-2.43.76-21.43.46-24.32,0-2.89-.46-9.73.3-9.73.3,0,0-.76-6.5-.08-10.36Z" class="colorffffff svgShape colorStroke8b4747 svgStroke"></path><path fill="#894d93" d="m80.16,258.11c2.07-1.64,3.69-4.1,4.47-5.4-7.46,2.07-15.48,6.16-15.21,13.48,1.5-3.66,8.11-6,10.74-8.08Z" class="color8b4747 svgShape"></path><path fill="#ffffff" stroke="#81478b" stroke-linecap="round" stroke-linejoin="round" d="m244.61,259.18l2.43-6.69c-1.82.46-4.41,7.6-7.75,5.62-3.34-1.98-2.89-3.65-2.89-3.65,8.21,2.28,9.73-2.13,9.73-2.13,0,0-2.89.3-7.9-3.04-5.02-3.34-10.03.3-10.03.3,0,0-6.23-4.1-11.25-11.1-5.02-6.99-8.82-9.27-13.53-15.35-3.58-4.62-4.1-11.9-4.73-17.47-.44-3.83-.81-7.74-1.11-11.56-.31-4.02.37-8-.31-12.05-.68-4.02-2.36-8-5.4-10.71-3.09-2.75-6.94-3.65-10.88-4.39-2.69-.5-6.7-1.94-9.24-3.04-.19,2.83,1.01,6.23,1,9.06,0,3.17.14,6.42.66,9.46.26,1.51.6,3.01,1.06,4.48.22.69.46,1.38.73,2.05,0,0,.11.24.13.29.07.14.14.28.21.43.14.28.29.55.45.82.31.53.66,1.05,1.02,1.55.19.27.39.53.59.79.03.04.17.22.18.24.07.09.14.18.2.26.8,1.02,1.62,2.03,2.35,3.11.66.98,1.21,2.03,1.6,3.12.3-1.61.52-2.75.52-2.75,0,0,1.67,14.14,2.58,17.63.91,3.5,1.06,8.51,8.06,19.46,6.99,10.94,25.69,19.76,26.75,20.22,1.06.46,4.56,3.34,9.27,6.38,4.71,3.04,13.38,3.04,15.35,1.67,1.98-1.37,4.86-1.52,4.86-1.52-.76-2.13-4.71-1.52-4.71-1.52Z" class="colorffffff svgShape colorStroke8b4747 svgStroke"></path><path fill="#894d93" d="m185.12,184.49s-.08.24-.22.66c-.14.42-.34,1.02-.56,1.73-.11.36-.22.75-.32,1.15-.11.41-.19.84-.28,1.28-.03.22-.08.45-.1.67l-.03.33-.02.37c-.02.47-.03.95-.02,1.45,0,.5,0,1,0,1.5,0,.5-.02.99-.04,1.47-.03.48-.08.94-.14,1.38-.06.44-.14.85-.22,1.23-.17.75-.37,1.36-.53,1.78-.17.42-.27.65-.27.65,0,0,0-.26.04-.7.01-.22.03-.49.05-.79.01-.3.02-.65.04-1.02,0-.37,0-.78.01-1.2,0-.43-.02-.87-.03-1.34-.03-.93-.09-1.93-.09-2.95,0-.51.02-1.04.07-1.56l.04-.37c.02-.15.04-.26.07-.4.04-.26.11-.5.17-.74.28-.95.64-1.78,1-2.46.36-.68.72-1.22.98-1.58.26-.36.43-.56.43-.56Z" class="color8b4747 svgShape"></path><path fill="#ffffff" stroke="#81478b" stroke-linecap="round" stroke-linejoin="round" d="m58.71,255.56l-1.93-7c1.82.61,3.86,8.09,7.42,6.35,3.56-1.74,3.23-3.47,3.23-3.47-8.53,1.65-9.72-2.96-9.72-2.96,0,0,2.91.55,8.28-2.45,5.37-2.99,10.18,1.13,10.18,1.13,0,0,6.67-3.66,12.34-10.36,5.67-6.7,9.72-8.71,15.01-14.5,5.33-5.85,6.23-16.55,7.39-23.97,1.62-10.37.23-23.92,10.56-30.24,2.66-1.63,5.68-2.48,8.7-3.13,2.78-.6,6.51-1.92,9.28-1.74.86,3.45-2.34,6.88-1.91,10.36.38,3.08.43,6.15.18,9.27-.24,3-.65,6.01-1.67,8.81-1.53,4.18,1.24,6.22-1.35,9.87-.44.62-3.89.56-3.51-.1.92-1.6-3.61-4.51-3.62-4.55-.1-.93-1.43,4.63-1.63,5.55-.94,4.44-2.27,10.46-3,12.56-1.21,3.48-1.78,8.57-9.78,19.12-8,10.56-27.73,17.99-28.85,18.37-1.12.38-4.91,3.03-9.95,5.73-5.04,2.71-13.85,2-15.75.45-1.9-1.55-4.82-1.94-4.82-1.94.95-2.1,4.92-1.16,4.92-1.16Z" class="colorffffff svgShape colorStroke8b4747 svgStroke"></path><path fill="#894d93" d="m122.78,183.95s.29.13.73.47c.22.17.49.38.75.67.27.28.56.62.81,1.05.27.41.5.91.66,1.46.18.54.24,1.18.25,1.78,0,.6.04,1.14.09,1.74.05.59.12,1.2.2,1.81.07.61.15,1.22.24,1.81.09.6.18,1.19.26,1.76.09.57.17,1.13.25,1.65.08.52.16,1.02.22,1.48.14.92.24,1.69.31,2.23.07.54.1.85.1.85,0,0-.13-.29-.33-.8-.2-.51-.47-1.24-.75-2.14-.14-.45-.29-.93-.42-1.45-.14-.52-.29-1.06-.41-1.64-.13-.57-.27-1.16-.37-1.77-.11-.61-.21-1.23-.29-1.85-.07-.63-.13-1.25-.17-1.88-.02-.31-.03-.62-.02-.94,0-.32.02-.6.03-.9,0-.14,0-.28.01-.41,0-.13.01-.26,0-.39,0-.13-.01-.26-.02-.38-.02-.12-.04-.25-.06-.37-.09-.48-.22-.94-.4-1.35-.34-.82-.79-1.44-1.12-1.86-.34-.42-.57-.64-.57-.64Z" class="color8b4747 svgShape"></path><g fill="#000000" class="color000000 svgShape"><path fill="#ffffff" stroke="#81478b" stroke-linecap="round" stroke-linejoin="round" d="M168.45 141.63s1.18-2.02 2.5-2.11c1.32-.09 2.24 1.03 2.37 2.56.13 1.52-.57 4.51-1.54 5.38-.97.88-2.72.88-3.33-.44-.61-1.32 0-5.4 0-5.4zM142.24 141.63s-1.18-2.02-2.5-2.11c-1.32-.09-2.24 1.03-2.37 2.56-.13 1.52.57 4.51 1.54 5.38.97.88 2.72.88 3.33-.44.61-1.32 0-5.4 0-5.4z" class="colorffffff svgShape colorStroke8b4747 svgStroke"></path><path fill="#ffffff" stroke="#81478b" stroke-linecap="round" stroke-linejoin="round" d="m168.9,140.04c0-.7,1.25-4.78.27-7.37-.98-2.59-6.61-3.62-6.61-3.62,0,0-3.24.03-7.07.08-3.83-.05-7.07-.08-7.07-.08,0,0-5.84.52-6.82,3.11-.98,2.59-.18,6.9-.17,7.6,0,.7.53,5.19.39,6.9-.14,1.71.78,5.31,2.91,8.16.78.89,1.69,1.7,2.71,2.34.63.4,1.31.74,2.03.97.38.12.75.26,1.06.5.31.25.51.6.8.87.31.29.69.53,1.08.72.78.38,1.65.55,2.52.57.19,0,.38,0,.56-.02.19.01.38.02.56.02.87-.02,1.74-.19,2.52-.57.39-.19.77-.42,1.08-.72.29-.27.48-.62.8-.87.31-.24.68-.38,1.06-.5.72-.23,1.4-.57,2.03-.97,1.02-.64,1.93-1.44,2.71-2.34,2.12-2.85,3.05-6.45,2.91-8.16-.14-1.71-.26-5.92-.26-6.62Z" class="colorffffff svgShape colorStroke8b4747 svgStroke"></path><path fill="#e594f2" d="M141.6 140.84s-.18-2.98 0-5.48c.18-2.5.88-5.67 3.68-4.48 2.81 1.19 5.35 2.51 11.32 1.63 5.97-.88 8.6-2.38 10.35-1.63 1.75.75 1.93 3.78 1.84 4.85-.09 1.08-.31 5.81.02 6.03.33.22.95-2.07 2.26-2.28 1.32-.22 3.51-3.46 3.16-7.23-.35-3.77-1.05-3.01-1.84-5.85-.79-2.84-1.84-6.87-8.25-8.8-6.4-1.93-12.66-2.11-16.35-.53-3.68 1.58-5.25 3.3-6.28 4.34 0 0-2.29 2.21-3.69 4.99-1.4 2.78-1.14 6.03-.79 8.31.35 2.28 1.23 4.29 2.02 4.78.79.49 1.75.31 2.54 1.36zM156.23 110.74c-.49-.35-.42-2.44-.39-2.96.27-3.58 3.96-5.47 7.27-4.83 4.08.79 5.93 5.94 4.16 9.47-.58 1.15-1.62 2-2.95 1.95-3.15-.12-8.07-3.62-8.09-3.63z" class="colorf29494 svgShape"></path><path fill="#e594f2" d="m151.35,114.96c-.46-.15.31-2.15.44-2.35,1.9-2.88,6.02-3.04,8.97-1.91,1.51.58,2.95,1.56,3.8,2.96.71,1.16,1.51,4.41-.32,5.03-.88.3-12.84-3.72-12.88-3.74Z" class="colorf29494 svgShape"></path><path fill="#e594f2" d="M149.93 116.87s-.35-1.83 1.84-2.79c2.19-.96 4.65.18 5.18 2.37.53 2.19-7.02.42-7.02.42zM151.2 126.83s-.09 0-.26 0c-.17 0-.42.01-.74-.01-.16 0-.34-.03-.53-.06-.19-.02-.4-.06-.62-.11-.44-.09-.93-.23-1.45-.44-1.02-.43-2.16-1.11-3.15-2.1-1-.98-1.86-2.23-2.41-3.63-.54-1.39-.77-2.92-.59-4.32.08-.7.26-1.36.51-1.96.25-.6.58-1.1.77-1.59.19-.48.18-.97.02-1.37-.15-.4-.38-.71-.6-.94-.22-.22-.41-.38-.56-.47-.14-.1-.22-.14-.22-.14 0 0 .08.03.24.11.15.08.37.21.61.42.24.21.51.51.71.93.1.21.17.45.19.72.01.13 0 .29-.02.41-.02.14-.06.28-.1.41-.19.55-.49 1.05-.69 1.63-.2.58-.34 1.21-.41 1.87-.13 1.32.09 2.76.61 4.08.51 1.33 1.32 2.53 2.25 3.5.47.48.95.91 1.45 1.27.5.36 1 .65 1.49.88.49.22.95.41 1.37.53.21.06.41.12.6.15.19.04.36.08.52.1.31.05.56.08.73.09.17.01.26.02.26.02z" class="colorf29494 svgShape"></path><g fill="#000000" class="color000000 svgShape"><path fill="#894d93" stroke="#81478b" stroke-miterlimit="10" stroke-width=".25" d="M146.29 139.52s.08.06.22.16c.14.1.35.23.6.37.13.07.27.14.42.21.15.07.31.12.48.19.17.05.34.11.53.14.18.05.36.06.55.07.19.03.37 0 .56 0 .18-.02.36-.05.54-.07.17-.04.34-.09.5-.13.16-.04.3-.11.44-.16.28-.09.49-.21.65-.28.16-.07.25-.11.25-.11 0 0-.07.07-.21.18-.14.1-.32.29-.59.43-.13.07-.27.17-.43.24-.16.06-.34.14-.52.19-.19.04-.38.1-.59.12-.2 0-.41.04-.62.01-.21-.02-.42-.04-.61-.1-.2-.04-.39-.12-.57-.19-.35-.16-.66-.35-.9-.55-.48-.39-.68-.74-.68-.74zM158.36 139.8s.32.23.83.48c.26.12.56.25.89.35.16.05.34.09.51.12.18.02.36.06.54.05.18.02.36 0 .54-.03.18 0 .34-.07.51-.1.17-.04.31-.12.47-.17.15-.05.28-.14.4-.2.12-.07.25-.12.34-.19.1-.07.18-.12.25-.17.14-.09.23-.14.23-.14 0 0-.06.08-.17.21-.12.12-.26.33-.51.5-.12.09-.24.21-.39.28-.15.08-.31.18-.49.24-.18.05-.37.14-.57.16-.2.03-.4.06-.61.04-.21 0-.41-.04-.6-.07-.2-.04-.38-.11-.56-.17-.35-.14-.65-.32-.89-.5-.48-.36-.7-.68-.7-.68z" class="color8b4747 svgShape colorStroke8b4747 svgStroke"></path><g fill="#000000" class="color000000 svgShape"><path fill="#ffffff" d="m149.92,151.01h8.78s-4.08,6.85-8.91,0" class="colorffffff svgShape"></path><path fill="#894d93" d="m149.92,151.01c2.92-.28,5.85-.36,8.79-.37.2,0,.37.16.37.36-1.36,2.76-4.93,4.62-7.51,2.22-.72-.64-1.3-1.4-1.77-2.21.61.71,1.24,1.4,2,1.91,2.39,1.92,5.19.2,6.58-2.1,0,0,.32.56.32.56-2.93-.02-5.86-.09-8.78-.37h0Z" class="color8b4747 svgShape"></path></g><path fill="#894d93" d="m154.4,142.79c.68-.11,1.02.74.92,1.32-.09.65-.57,1.11-.8,1.53-.59.96.4,1.96.98,2.7-.75-.43-1.49-1.11-1.64-2-.1-.93.88-1.58,1.09-2.3.13-.44.05-1.11-.54-1.24h0Z" class="color8b4747 svgShape"></path></g></g><path fill="#e594f2" d="m180.66,191.45c-3.04-4.32-4.93-10.74-5.34-12.84-.41-2.09-1.62-12.97-2.5-14.53-.85-1.51-3.3-2.13-3.5-1.41-.02-.01-.05-.03-.07-.04.08,2.85-.53,6.12-1.02,11.46-.61,6.69-4.05,10.54-9.93,11.76-5.88,1.22-13.38-.2-16.62-7.7-2.59-5.98-1.82-13.13-1.4-15.77-.03.01-.06.03-.09.04h0s-2.03.47-2.57.53c-.54.07-1.49.27-1.69,1.76-.18,1.3-2.75,12.27-4.38,17.32-.12.34-.24.69-.36,1.05-.09.26-.18.49-.26.68-1.49,3.51-5.87,10.76-4.28,15.99,1.58,5.23,2.46,5.43,2.86,8.33.38,2.74,1.73,7.64,2.33,8.36.02.06.03.11.05.17,3.44.85,10.74-2.03,17.89-2.38,8.11-.41,17.03.81,23.71,1.42,2.03.18,3.38.22,4.29.18.09-.25.17-.5.26-.74.59-1.42,1.9-4.63,2.21-5.93.41-1.69,1.42-5.95,2.03-7.5.61-1.55,1.42-5.88-1.62-10.2Z" class="colorf29494 svgShape"></path></g><path fill="#894d93" d="M135.19 247.65c6.06-.28 12.2 3.45 14.73 8.97-3.42-4.88-8.82-8.17-14.73-8.97h0zM164.79 256.3c1.38-4.75 4.95-8.95 9.42-11.05-3.92 3.03-7.05 6.7-9.42 11.05h0zM89.54 278.63c4.69 2.32 9.9 3.33 15.12 2.95-5.1 1.44-10.94.3-15.12-2.95h0zM145.82 274.12c-.95 3.04-.91 5.95-.12 9.02-1.82-2.6-1.83-6.48.12-9.02h0zM157 272.37c-.41-2.95 3.42-4.88 5.58-2.8.67.58 1.1 1.44 1.09 2.28-1.31-3.43-5.9-3.07-6.67.51h0zM210.38 283.39c4.49.31 8.79-.48 12.89-2.34-3.52 2.79-8.61 3.71-12.89 2.34h0zM196.12 256.35c4.64-1.76 10.09-1.64 14.64.34-4.89-.96-9.72-1.08-14.64-.34h0zM185.83 281.9c1.21-.37 2.63.53 2.81 1.78-1.09-.63-1.77-1.06-2.81-1.78h0z" class="color8b4747 svgShape"></path><path fill="#ffffff" d="M132.18 207.51c2.66 3.28 4.15 7.6 4.06 11.83-.96-4.13-2.28-7.98-4.06-11.83h0zM178.24 207.16c-2.29 1.56-1.61 4.4-2.07 6.79-.49 2.54-2 4.89-4.14 6.23 1.75-1.8 2.95-4 3.4-6.37.39-2.23.15-5.69 2.81-6.65h0z" class="colorffffff svgShape"></path></g></g></g></svg>