<svg xmlns="http://www.w3.org/2000/svg" enable-background="new 0 0 512 512" viewBox="0 0 512 512" id="Meal"><path fill="#894eef" d="M504,9.28v470c0,8.4-6.88,14.4-14.4,14.4c-2.4,0-4.8-0.64-7.12-1.92c-20.88-12-32.56-35.36-29.52-59.2
	l9.84-78.72c0.56-5.04-1.2-10-4.72-13.44c-0.72-0.72-1.44-1.36-2.32-1.92L440,328c0-60.24,4.96-111.68,12.16-154.48
	C470.72,62.72,504,9.28,504,9.28z" class="colorab8d83 svgShape"></path><path fill="#6d598f" d="M503.04,10.96c-22.16,80.4-40.24,238.48-49.12,326.32L440,328c0-60.24,4.96-111.68,12.16-154.48
	C468.8,74.08,497.36,20.8,503.04,10.96z" class="color8f6759 svgShape"></path><path fill="#c6bada" d="M455.76,338.48c0.88,0.56,1.6,1.2,2.32,1.92C427.2,422,348.4,480,256,480c-73.76,0-138.8-36.96-177.76-93.36
	l-5.52-166.08C72.24,207.2,76,194,83.36,182.88l9.92-14.72c6.96-10.56,10.72-22.88,10.72-35.52v-22.08
	C143.04,71.84,196.64,48,256,48c86.96,0,161.92,51.44,196.16,125.52C444.96,216.32,440,267.76,440,328L455.76,338.48z" class="colordac2ba svgShape"></path><path fill="#a08cc2" d="M125.491 91.927c-7.558 5.749-14.755 11.952-21.491 18.633v22.08c0 12.64-3.76 24.96-10.72 35.52l-9.92 14.72C76 194 72.24 207.2 72.72 220.56l5.52 166.08c18.689 27.055 43.425 49.565 72.199 65.739-2.334-3.903-4.499-8.013-6.439-12.379C92.073 328.729 143.272 210.578 125.491 91.927zM416 376c4.32 8.64 6.013 17.539 5.615 26.417 15.359-18.363 27.838-39.22 36.465-62.017-.72-.72-1.44-1.36-2.32-1.92L440 328c0-60.24 4.96-111.68 12.16-154.48-9.421-20.383-22.017-38.966-37.005-55.321C383.883 200.516 367.251 288.253 416 376z" class="colorc29a8c svgShape"></path><path fill="#f6f1ff" d="M256,112c83.92,0,152,68.08,152,152s-68.08,152-152,152s-152-68.08-152-152S172.08,112,256,112z" class="colorfff7f1 svgShape"></path><polygon fill="#ddd6e9" points="378.56 244.8 361.76 261.76 365.36 285.36 344 274.64 322.64 285.36 326.24 261.76 309.44 244.8 333.04 240.88 344 219.68 354.96 240.88" class="colore9dad6 svgShape"></polygon><polygon fill="#ddd6e9" points="290.56 244.8 273.76 261.76 277.36 285.36 256 274.64 234.64 285.36 238.24 261.76 221.44 244.8 245.04 240.88 256 219.68 266.96 240.88" class="colore9dad6 svgShape"></polygon><polygon fill="#ddd6e9" points="202.56 244.8 185.76 261.76 189.36 285.36 168 274.64 146.64 285.36 150.24 261.76 133.44 244.8 157.04 240.88 168 219.68 178.96 240.88" class="colore9dad6 svgShape"></polygon><path fill="#894eef" d="M104,132.64c0,12.64-3.76,24.96-10.72,35.52l-9.92,14.72C76,194,72.24,207.2,72.72,220.56l5.52,166.08
	L80,440v25.44C80,477.92,69.92,488,57.44,488h-2.88C42.08,488,32,477.92,32,465.44V440l7.28-219.44C39.76,207.2,36,194,28.64,182.88
	l-9.92-14.72C11.76,157.6,8,145.28,8,132.64V64h8l16,72l12,12l12-84l12,84l12-12l16-72h8v46.56V132.64z" class="colorab8d83 svgShape"></path><path fill="#6d598f" d="M96,64l-16,72l-12,12L56,64l-6.383,44.68C53.199,215.905,70.675,321.962,48,424
	c-2.049,8.197-7.812,14.271-16,18.806v22.634C32,477.92,42.08,488,54.56,488h2.88C69.92,488,80,477.92,80,465.44V440l-1.76-53.36
	l-5.52-166.08C72.24,207.2,76,194,83.36,182.88l9.92-14.72c6.96-10.56,10.72-22.88,10.72-35.52v-22.08V64H96z" class="color8f6759 svgShape"></path><path fill="#362456" d="M256 104c-88.227 0-160 71.773-160 160s71.773 160 160 160 160-71.773 160-160S344.227 104 256 104zM256 408c-79.398 0-144-64.602-144-144s64.602-144 144-144 144 64.602 144 144S335.398 408 256 408zM400.805 135.023c-2.812-3.398-7.844-3.875-11.266-1.078-3.406 2.82-3.891 7.859-1.078 11.266 5.734 6.938 10.945 14.398 15.492 22.172 1.492 2.547 4.164 3.961 6.914 3.961 1.375 0 2.766-.352 4.031-1.094 3.812-2.234 5.094-7.133 2.867-10.945C412.789 150.789 407.078 142.625 400.805 135.023zM309.086 91.75c17.609 5.508 34.109 13.859 49.039 24.82 1.43 1.047 3.086 1.547 4.727 1.547 2.461 0 4.891-1.133 6.461-3.266 2.609-3.562 1.844-8.57-1.719-11.188-16.359-12-34.438-21.148-53.727-27.18-4.258-1.352-8.703 1.023-10.023 5.242S304.875 90.43 309.086 91.75z" class="color563124 svgShape"></path><path fill="#362456" d="M506.203,1.609c-3.438-0.938-7.109,0.438-8.992,3.461c-1.776,2.85-30.163,49.599-48.893,144.368
		C408.218,82.33,335.135,40,256,40c-53.284,0-103.73,18.546-144,52.492V64c0-4.422-3.578-8-8-8h-8c-3.75,0-6.992,2.602-7.812,6.266
		l-14.82,66.719l-9.445-66.117C63.359,58.93,59.984,56,56,56s-7.359,2.93-7.922,6.867l-9.445,66.117l-14.82-66.719
		C22.992,58.602,19.75,56,16,56H8c-4.422,0-8,3.578-8,8v68.625c0,14.258,4.18,28.062,12.094,39.938l9.852,14.781
		c6.523,9.781,9.766,21.164,9.375,32.93L24,440v25.438C24,482.289,37.711,496,54.562,496h2.875C74.289,496,88,482.289,88,465.438
		l-0.008-25.703l-0.961-28.843C129.343,459.537,190.832,488,256,488c82.168,0,157.663-45.891,196.531-116.743l-7.539,60.305
		c-3.398,27.172,9.773,53.516,33.555,67.109c3.477,1.984,7.289,2.977,11.094,2.977c3.859,0,7.719-1.016,11.227-3.055
		C507.836,494.547,512,487.32,512,479.258V9.305C512,5.734,509.633,2.594,506.203,1.609z M72,465.438
		C72,473.469,65.469,480,57.438,480h-2.875C46.531,480,40,473.469,40,465.438l-0.008-25.172l7.312-219.461
		c0.508-15.117-3.656-29.758-12.047-42.336l-9.852-14.781C19.25,154.453,16,143.711,16,132.625v-31.75l8.188,36.859
		c0.336,1.484,1.078,2.844,2.156,3.922l12,12c2.141,2.141,5.305,2.914,8.188,1.93c2.875-0.953,4.961-3.453,5.391-6.453L56,120.57
		l4.078,28.562c0.43,3,2.516,5.5,5.391,6.453c2.883,0.984,6.047,0.211,8.188-1.93l12-12c1.078-1.078,1.82-2.438,2.156-3.922
		L96,100.875v31.75c0,11.086-3.25,21.828-9.406,31.062l-9.852,14.781c-8.391,12.578-12.555,27.219-12.047,42.336L72,440V465.438z
		 M256,472c-67.563,0-130.866-32.93-169.87-88.139L80.68,220.273c-0.391-11.766,2.852-23.148,9.375-32.93l9.852-14.781
		C107.82,160.688,112,146.883,112,132.625v-18.619C150.891,76.607,201.872,56,256,56c79.987,0,153.368,46.514,187.765,118.662
		C436.792,217.359,432,268.343,432,328c0,2.672,1.336,5.172,3.562,6.656l12.683,8.456C416.37,420.407,339.952,472,256,472z
		 M496,479.258c0,3.305-2.211,4.945-3.164,5.5c-0.961,0.547-3.477,1.672-6.352,0.023c-18.156-10.375-28.211-30.484-25.617-51.234
		l9.844-78.742c1.133-9.078-2.891-17.875-10.5-22.945l-12.203-8.133C448.578,181.148,477.617,88.695,496,44.359V479.258z" class="color563124 svgShape"></path><path fill="#362456" d="M56 440c-4.422 0-8 3.578-8 8v16c0 4.422 3.578 8 8 8s8-3.578 8-8v-16C64 443.578 60.422 440 56 440zM203.828 236.891l-19.602-3.234-9.117-17.641c-2.75-5.297-11.469-5.297-14.219 0l-9.117 17.641-19.602 3.234c-2.953.484-5.391 2.578-6.312 5.422s-.18 5.961 1.922 8.094l13.953 14.125-2.977 19.633c-.453 2.961.781 5.914 3.203 7.672 2.414 1.766 5.617 2.016 8.289.68l17.75-8.898 17.75 8.898c1.133.57 2.359.852 3.586.852 1.656 0 3.312-.516 4.703-1.531 2.422-1.758 3.656-4.711 3.203-7.672l-2.977-19.633 13.953-14.125c2.102-2.133 2.844-5.25 1.922-8.094S206.781 237.375 203.828 236.891zM180.062 256.141c-1.781 1.797-2.602 4.328-2.219 6.828l1.258 8.312-7.516-3.766c-1.125-.57-2.359-.852-3.586-.852s-2.461.281-3.586.852l-7.516 3.766 1.258-8.312c.383-2.5-.438-5.031-2.219-6.828l-5.906-5.984 8.297-1.367c2.5-.406 4.648-1.969 5.812-4.219l3.859-7.461 3.859 7.461c1.164 2.25 3.312 3.812 5.812 4.219l8.297 1.367L180.062 256.141zM291.828 236.891l-19.602-3.234-9.117-17.641c-2.75-5.297-11.469-5.297-14.219 0l-9.117 17.641-19.602 3.234c-2.953.484-5.391 2.578-6.312 5.422s-.18 5.961 1.922 8.094l13.953 14.125-2.977 19.633c-.453 2.961.781 5.914 3.203 7.672 2.414 1.766 5.617 2.016 8.289.68l17.75-8.898 17.75 8.898c1.133.57 2.359.852 3.586.852 1.656 0 3.312-.516 4.703-1.531 2.422-1.758 3.656-4.711 3.203-7.672l-2.977-19.633 13.953-14.125c2.102-2.133 2.844-5.25 1.922-8.094S294.781 237.375 291.828 236.891zM268.062 256.141c-1.781 1.797-2.602 4.328-2.219 6.828l1.258 8.312-7.516-3.766c-1.125-.57-2.359-.852-3.586-.852s-2.461.281-3.586.852l-7.516 3.766 1.258-8.312c.383-2.5-.438-5.031-2.219-6.828l-5.906-5.984 8.297-1.367c2.5-.406 4.648-1.969 5.812-4.219l3.859-7.461 3.859 7.461c1.164 2.25 3.312 3.812 5.812 4.219l8.297 1.367L268.062 256.141zM336.891 216.016l-9.117 17.641-19.602 3.234c-2.953.484-5.391 2.578-6.312 5.422s-.18 5.961 1.922 8.094l13.953 14.125-2.977 19.633c-.453 2.961.781 5.914 3.203 7.672 2.414 1.766 5.617 2.016 8.289.68l17.75-8.898 17.75 8.898c1.133.57 2.359.852 3.586.852 1.656 0 3.312-.516 4.703-1.531 2.422-1.758 3.656-4.711 3.203-7.672l-2.977-19.633 13.953-14.125c2.102-2.133 2.844-5.25 1.922-8.094s-3.359-4.938-6.312-5.422l-19.602-3.234-9.117-17.641C348.359 210.719 339.641 210.719 336.891 216.016zM361.969 250.156l-5.906 5.984c-1.781 1.797-2.602 4.328-2.219 6.828l1.258 8.312-7.516-3.766c-1.125-.57-2.359-.852-3.586-.852s-2.461.281-3.586.852l-7.516 3.766 1.258-8.312c.383-2.5-.438-5.031-2.219-6.828l-5.906-5.984 8.297-1.367c2.5-.406 4.648-1.969 5.812-4.219l3.859-7.461 3.859 7.461c1.164 2.25 3.312 3.812 5.812 4.219L361.969 250.156z" class="color563124 svgShape"></path></svg>