<svg xmlns="http://www.w3.org/2000/svg" viewBox="0 0 64 64" id="moon">
  <path fill="#e0e0e0" d="M34.79,9.76A22.38,22.38,0,0,1,18.16,47.11a23.46,23.46,0,0,1-3.48-.27A22.38,22.38,0,1,0,34.79,9.76Z"></path>
  <path fill="#afb1b2" d="M53.69,31.87A22.4,22.4,0,0,1,21.82,52.14a23.28,23.28,0,0,0,3.94.34A22.38,22.38,0,0,0,35.24,9.83,22.39,22.39,0,0,1,53.69,31.87Z"></path>
  <polygon fill="#ffda00" points="27.35 13.53 29.32 17.11 33.33 17.88 30.54 20.86 31.05 24.91 27.35 23.17 23.65 24.91 24.16 20.86 21.37 17.88 25.38 17.11 27.35 13.53"></polygon>
  <polygon fill="#ffda00" points="14.75 22.38 16.21 25.03 19.19 25.6 17.12 27.82 17.5 30.82 14.75 29.53 12.01 30.82 12.39 27.82 10.31 25.6 13.29 25.03 14.75 22.38"></polygon>
  <polygon fill="#ffda00" points="26.78 29.87 28.25 32.52 31.22 33.09 29.15 35.31 29.53 38.31 26.78 37.02 24.04 38.31 24.42 35.31 22.34 33.09 25.32 32.52 26.78 29.87"></polygon>
</svg>
