<svg xmlns="http://www.w3.org/2000/svg" enable-background="new 0 0 50 50" viewBox="0 0 50 50" id="OnlineDietPlan"><path d="M8.46528,4v42c0,1.6543,1.3457,3,3,3h27.06934c1.6543,0,3-1.3457,3-3V4c0-1.6543-1.3457-3-3-3H11.46528
		C9.81098,1,8.46528,2.3457,8.46528,4z M39.53461,46c0,0.55176-0.44824,1-1,1H11.46528c-0.55176,0-1-0.44824-1-1v-4.02734h29.06934
		V46z M10.47016,39.97266V10.02832h29.04492v29.94434H10.47016z M39.53461,4v4.02832H10.46528V4c0-0.55176,0.44824-1,1-1h27.06934
		C39.08637,3,39.53461,3.44824,39.53461,4z" fill="#894d93" class="color000000 svgShape"></path><path d="M22.63129 45.5h4.73828c.55273 0 1-.44727 1-1s-.44727-1-1-1h-4.73828c-.55273 0-1 .44727-1 1S22.07856 45.5 22.63129 45.5zM33.03168 16.76758c-.81787 0-1.62305.24756-2.37402.71216.05273-1.70264-.23315-3.8833-1.6543-5.63892-.34668-.42773-.97754-.49512-1.40625-.14844-.42969.34766-.49609.97754-.14844 1.40625 1.19165 1.47266 1.29492 3.46838 1.17603 4.87744-.93286-.78345-1.97681-1.2085-3.04224-1.2085-1.15234 0-2.21582.45703-3.0752 1.32129-1.13623 1.14209-1.85278 2.92798-2.04639 5.00366-.30762-.03735-.61865-.06226-.93604-.06226-4.27344 0-7.75 3.47656-7.75 7.75s3.47656 7.75 7.75 7.75c3.27783 0 6.08032-2.04871 7.21118-4.93018.80054.00488 1.40723-.26074 1.88354-.47314 1.47168-.65543 1.18155.4873 3.27051.4873.57324 0 1.14941-.12891 1.71777-.38672 2.01953-.91895 3.76953-3.52539 4.35547-6.48633.62207-3.14844.02832-6.39453-1.51367-8.27148C35.53461 17.35645 34.35297 16.76758 33.03168 16.76758zM25.07832 32.24658c-.00073.00269-.00293.00464-.00366.00732-.00073.00293.00024.00562-.00049.00854-.65601 2.45337-2.8916 4.26782-5.54932 4.26782-3.1709 0-5.75-2.5791-5.75-5.75s2.5791-5.75 5.75-5.75C23.22562 25.03027 26.06014 28.53381 25.07832 32.24658zM36.00043 26.35254c-.45898 2.32227-1.7832 4.40039-3.2207 5.05371-1.97292.90812-2.07777-1.40042-4.97656-.10547-.20264.09045-.38379.16357-.56592.21875.33494-3.48194-1.6936-6.65795-4.81445-7.92188.10645-1.7395.64917-3.24023 1.50244-4.09863 1.16797-1.17578 2.89258-.89648 4.23535.88086.5756.74248 1.685.77676 2.28906-.00879 1.41211-1.87012 3.26855-2.07617 4.45508-.63086C36.06391 21.15039 36.50434 23.80762 36.00043 26.35254z" fill="#894d93" class="color000000 svgShape"></path><path d="M22.27583,27.81152l-3.81641,3.81641l-1.68457-1.68457c-0.39063-0.39063-1.02344-0.39063-1.41406,0
		s-0.39063,1.02344,0,1.41406l2.3916,2.3916c0.39061,0.39061,1.02343,0.39064,1.41406,0l4.52344-4.52344
		c0.39063-0.39063,0.39063-1.02344,0-1.41406S22.66645,27.4209,22.27583,27.81152z" fill="#894d93" class="color000000 svgShape"></path></svg>