<svg xmlns="http://www.w3.org/2000/svg" enable-background="new 0 0 1080 1080" viewBox="0 0 1080 1080" id="Pilates"><path fill="#f2f2f2" d="M1013.8,1009.1H66.2c-6.1,0-11.1-5-11.1-11.1v-55c0-6.1,5-11.1,11.1-11.1h947.5c6.1,0,11.1,5,11.1,11.1v55
	C1024.9,1004.1,1019.9,1009.1,1013.8,1009.1z" class="colorf2f2f2 svgShape"></path><g fill="#000000" class="color000000 svgShape"><rect width="398.3" height="358.7" x="55.1" y="307.3" fill="#f2f2f2" class="colorf2f2f2 svgShape"></rect><polygon fill="#ffffff" points="108.5 666 55.1 666 335.7 307.3 389.1 307.3" class="colorffffff svgShape"></polygon><polygon fill="none" stroke="#ffffff" stroke-miterlimit="10" points="453.4 307.3 453.4 321.9 184.2 666 157.5 666 438.1 307.3" class="colorStrokeffffff svgStroke"></polygon></g><g fill="#000000" class="color000000 svgShape"><rect width="398.3" height="358.7" x="626.6" y="307.3" fill="#f2f2f2" class="colorf2f2f2 svgShape"></rect><polygon fill="#ffffff" points="680 666 626.6 666 907.2 307.3 960.6 307.3" class="colorffffff svgShape"></polygon><polygon fill="none" stroke="#ffffff" stroke-miterlimit="10" points="1024.9 307.3 1024.9 321.9 755.7 666 729 666 1009.6 307.3" class="colorStrokeffffff svgStroke"></polygon></g><g fill="#000000" class="color000000 svgShape"><path fill="#f2a1ff" d="M508.4 508.5c-38.9 5-173.2 11.1-216.3 18 6.3 9.1 10.8 15.7 10.8 15.7s200.9-8.2 225.2 9.6C516.8 526.1 508.4 508.5 508.4 508.5zM763.1 266.6c-5.3-10.9-10.2-29.6-9.3-34 1-4.4.5-59.1-12.8-63.6-7.9 2.5-4.9 30.6-9.9 40.9s-22.2 22.2-15.8 32.5c6.4 10.4 22.6 16.3 23.1 20.7.5 4.4.5 15.7.5 15.7L763.1 266.6z" class="colorffc7a1 svgShape"></path><path fill="#d300f6" d="M660.6,531.3c-2.4-26.2,7.9-37.8,57.8-67.6c23.1-15.8,31.6-57.2,26.8-64.5s-9.7-97.3-5.5-126.5
		c8.5-6.7,23.4-6.1,23.4-6.1s33.2,133.2,21.6,159.4c-11.6,26.2-53.5,130.8-68.7,152.7c-15.2,21.9-20.9,160.6-28,182.8
		c-7.1,22.2,31.1,0-4.4,159.8c0,12.4,0,12.4,0,12.4h-23.3c0,0-5.1-142.1-6-154.5c-0.9-12.4-38.2-102.5-33.7-179.1
		S660.6,531.3,660.6,531.3z" class="colorf6a400 svgShape"></path><path fill="#f2a1ff" d="M684.6,514.9c-4.8,44.7-5.9,106.5-60.7,90c-12-3.6-24.6-6.2-36.8-9c-43.4-9.9-82.5-21.7-78.8-87.3
		c1.4-1.5,3-3.1,4.6-4.9c15.3-16.1,38.2-40.5,48.2-37.6c2.3-0.8,4.9-2,7.7-3.3v0c3.5-1.7,7.4-3.6,11.4-5.6c5-2.5,10.1-5.1,15.1-7.3
		c15.2-6.8,28.5-17.1,38.9-30.2c31.6-40,69.8-90.9,103.8-112.3c0.1,10.1,0.5,26.4,0.5,26.4S627.6,469.5,626.6,488.8
		c0,0.9,0,1.9,0.1,2.8c1.1,8.4,8.4,18.2,18,24.7C657.2,524.8,673.4,527.8,684.6,514.9z" class="colorffc7a1 svgShape"></path><path fill="#f2a1ff" d="M544,438.6c5.8,9.8,28.3,30.6,28.3,30.6l-24.8,19.6c0,0-20.5-29.5-34-25.1C507.6,460.5,544,438.6,544,438.6z" class="colorffc7a1 svgShape"></path><path fill="#894d93" d="M540.1,373.8c-9.9-17.3-3.5-36.8,9.5-33.4c13,3.4,26.7,33.1,23.3,38.3C569.5,383.8,555.9,392.8,540.1,373.8z" class="color0b4870 svgShape"></path><path fill="#894d93" d="M560.6,405.9c0,26-20.1,47-45,47s-44.9-21.1-44.9-47c0-37,28.4-46.2,53.3-46.2
		C548.8,359.7,560.6,379.9,560.6,405.9z" class="color0b4870 svgShape"></path><path fill="#f3aeff" d="M545.7,426.2c0,30.5-26.7,50.3-48.7,50.3c-22,0-27.6-24.7-27.6-55.2c0-30.5,14.6-50.3,36.5-50.3
		C527.9,371.1,545.7,395.8,545.7,426.2z" class="colorffd1ae svgShape"></path><path fill="#894d93" d="M524.6,390.6c-2.4,4.1-44.8,10.5-54.6,21.2c-15.6-31.6,25.4-53.6,53.8-37.4
		C536.8,390.6,524.6,390.6,524.6,390.6z" class="color0b4870 svgShape"></path><path fill="#894d93" d="M524.6,390.6c-0.8,5.7,1.2,24.2,22.6,27.1c9-23.4-11.2-50.5-23.4-43.4C517.5,382.5,524.6,390.6,524.6,390.6z" class="color0b4870 svgShape"></path><ellipse cx="545.7" cy="425.4" fill="#f3aeff" rx="12.4" ry="7.8" transform="rotate(-60 545.685 425.418)" class="colorffd1ae svgShape"></ellipse><path fill="#d72af4" d="M644.7,516.3c-6,40.6-39.1,67.5-57.5,79.5c-43.4-9.9-82.5-21.7-78.8-87.3c1.4-1.5,5.8-5.9,7.4-7.6
		c-1.1,7-0.9,21.1,4.1,39.1c10.6,38.1,59.4-18.8,62.2-23.4c2.8-4.6-17-29.9-13.2-53.8v0c3.5-1.7,7.4-3.6,11.4-5.6
		c-1.9,27.6,11.1,44.7,22.6,46.6c11.3,1.8,23.5-11.6,23.9-12.1C627.8,500,635.1,509.8,644.7,516.3z" class="color2a94f4 svgShape"></path><path fill="#f2a1ff" d="M660.2 930.7c-9.1 11.9-35.9 27.4-53.3 30.6-2 .4-2.5 2.9-.9 4.1 8.1 5.6 16.5 7.4 43.4 1.3 11-1.4 19.6 3.7 35.5 2 5.5-.6-1.4-34.9-1.4-34.9L660.2 930.7zM292.1 526.5c-36.5-4.4-63.3 10.5-69.8 13.5 3.2 5.7 54.1 2 55.1 5.8s-14.7 8.8-12 13.7c4.8-1.6 37.5-17.2 37.5-17.2C300.2 533.4 292.1 526.5 292.1 526.5zM754.7 297.3c-3 10.9 11.9 16.7 15.1 18.8 3.2 2.1 10-5.3 10-5.3s-8.4-20.3-8.9-22.1S754.7 297.3 754.7 297.3z" class="colorffc7a1 svgShape"></path></g><g fill="#000000" class="color000000 svgShape"><path fill="#f5b6ff" d="M172.9,966.4c29.8,0,42.3-23.8,47.3-49c5.6-28.5,1.5-58.8,1.5-58.8h-97.6c0,0-0.2,1.2-0.4,3.2
		C122,879.8,116.1,966.4,172.9,966.4z" class="colorb6e7ff svgShape"></path><path fill="#ee85ff" d="M124.2,858.7c0,2.1,21.8,3.9,48.8,3.9c26.9,0,48.8-1.7,48.8-3.9c0-2.1-21.8-3.9-48.8-3.9
		C146,854.8,124.2,856.5,124.2,858.7z" class="color85ddff svgShape"></path><path fill="#d72af4" d="M40.8,588.2c0,0,51.4,78.3,82.3,126s39,57.7,42.6,73.1c3.7,15.4,7,72.4,7,72.4h2.3c0,0-0.8-48.3-3.6-64.6
		c-2.7-15.7,0.2-21.4,2.4-37.9c2.2-16.5,5.1-43-11.6-61.4c-16.7-18.4-12.3-36.4-18.2-48.5c-5.9-12.1-51.4-26.8-57.3-39.3
		C80.9,595.6,55.2,587.8,40.8,588.2z" class="color2a94f4 svgShape"></path><path fill="#dd41f7" d="M40.8,588.2c0,0,16.2,18.4,27.2,24.6c11,6.2,16.2,0.7,24.6,15.8c8.5,15.1,8.8,21.7,16.5,29.4
		c7.7,7.7,16.9,8.1,17.7,25c0.7,16.9-3.7,31.2-3.7,31.2S44.2,592.3,40.8,588.2z" class="color41aaf7 svgShape"></path><path fill="#d72af4" d="M168.7,859.8h-2.3c0,0-0.7-15.6-6.9-23.2c-4-4.9-21-10.5-37.9-17.1c-9.3-3.7-18.5-7.7-25.4-12.1
		c-19.6-12.4-38.2-52.5-39.8-59.6c-0.6-2.5-0.8-4-0.8-5v0c0-1.9,1-2.2,2.6-4.1c0.8-0.9,3.2-0.6,6.1,0.3c8.4,2.6,15.6,8.4,20,16
		c4.1,7.1,10.6,15.9,18.6,18c13.8,3.7,12.7,6,17.8,20c5.1,14,17.9,16.3,34,32.9C170.8,842.3,168.7,859.8,168.7,859.8z" class="color2a94f4 svgShape"></path><path fill="#dd41f7" d="M121.6,819.4c-9.3-3.7-18.5-7.7-25.4-12.1c-19.6-12.4-38.2-52.5-39.8-59.6c-0.6-2.5-0.8-4-0.8-5
		c0.1,0.5,1,6.8,11.2,11c10.6,4.4,12.7,4.4,14,11c1.4,6.7,2.5,13.8,8.1,15.2c5.5,1.4,9-4.8,13.3,5.3c4.4,10.1,6.5,13.6,10.5,15
		c4,1.4,7.1-0.7,8,7.1C121.2,812.1,121.5,816.6,121.6,819.4z" class="color41aaf7 svgShape"></path><path fill="#d72af4" d="M185.6,859.8h2.7c0,0,5.3-96.9,12.7-105.9c4.7-5.8,20.4-16.2,40.3-24.1c11-4.4,21.9-9.1,30.1-14.3
		c23.2-14.7,45.3-62.2,47.2-70.6c0.7-2.9,1-4.7,0.9-6v0c0-2.3-1.2-2.6-3.1-4.9c-0.9-1.1-3.8-0.7-7.2,0.3c-10,3-18.4,9.9-23.7,18.9
		c-4.8,8.4-12.6,18.8-22,21.4c-16.4,4.4-15,7.1-21,23.7c-6,16.6-21.2,19.4-40.3,39C183.2,756.9,185.6,859.8,185.6,859.8z" class="color2a94f4 svgShape"></path><path fill="#dd41f7" d="M241.4,729.8c11-4.4,21.9-9.1,30.1-14.3c23.2-14.7,45.3-62.2,47.2-70.6c0.7-2.9,1-4.7,0.9-6
		c-0.1,0.6-1.1,8.1-13.2,13.1c-12.5,5.2-15,5.2-16.6,13.1c-1.6,7.9-3,16.4-9.6,18c-6.5,1.6-10.6-5.7-15.8,6.3
		c-5.2,12-7.7,16.1-12.4,17.7c-4.8,1.6-8.4-0.8-9.4,8.5C241.9,721.1,241.6,726.5,241.4,729.8z" class="color41aaf7 svgShape"></path><g fill="#000000" class="color000000 svgShape"><path fill="#f8ccff" d="M172.9,966.4c29.8,0,42.3-23.8,47.3-49c-29.2-11.1-65.9-28.8-96.4-55.5C122,879.8,116.1,966.4,172.9,966.4z" class="colorcce9ff svgShape"></path></g></g><g fill="#000000" class="color000000 svgShape"><path fill="#f5b6ff" d="M935.1,966.2c19.1,0,27.2-15.2,30.3-31.4c3.6-18.2,1-37.7,1-37.7h-62.6c0,0-0.1,0.7-0.2,2.1
		C902.4,910.7,898.6,966.2,935.1,966.2z" class="colorb6e7ff svgShape"></path><path fill="#ee85ff" d="M903.8,897.1c0,1.4,14,2.5,31.3,2.5c17.3,0,31.3-1.1,31.3-2.5c0-1.4-14-2.5-31.3-2.5
		C917.8,894.7,903.8,895.8,903.8,897.1z" class="color85ddff svgShape"></path><path fill="#d72af4" d="M832.5,689.4c0,0,39.5,60.1,63.2,96.7s29.9,44.3,32.7,56.1c2.8,11.8,5.4,55.6,5.4,55.6h3.1
		c0,0,2-36.9-1.7-49.1c-3.7-12.1-2.3-16.9-0.6-29.6c1.7-12.7,3.9-33-8.9-47.1c-12.8-14.1-9.4-27.9-14-37.2
		c-4.5-9.3-39.5-20.6-44-30.2C863.2,695,843.5,689.1,832.5,689.4z" class="color2a94f4 svgShape"></path><path fill="#dd41f7" d="M841.1,689.4c0,0,12.4,14.1,20.9,18.9c8.5,4.8,12.4,0.6,18.9,12.1c6.5,11.6,6.7,16.6,12.7,22.6
		c5.9,5.9,13,6.2,13.6,19.2c0.6,13-2.8,24-2.8,24S843.7,692.5,841.1,689.4z" class="color41aaf7 svgShape"></path><path fill="#d72af4" d="M946.9,897.1l2.3-0.7c0,0-3.9-15.5-0.1-24.8c2.5-6,17.5-16.4,32.1-27.9c8-6.3,15.9-13,21.4-19.3
		c15.5-17.9,22.1-62.7,21.5-70.2c-0.2-2.6-0.4-4.2-0.7-5.2l0,0c-0.6-1.9-1.6-1.9-3.8-3.3c-1-0.7-3.3,0.3-5.9,2.1
		c-7.5,5-12.8,12.8-14.9,21.5c-1.9,8.1-5.7,18.7-12.9,23.1c-12.5,7.7-10.7,9.6-11.5,24.9c-0.9,15.3-12.8,21.3-23.7,42.3
		C939.7,880.6,946.9,897.1,946.9,897.1z" class="color2a94f4 svgShape"></path><path fill="#dd41f7" d="M981.2,843.7c8-6.3,15.9-13,21.4-19.3c15.5-17.9,22.1-62.7,21.5-70.2c-0.2-2.6-0.4-4.2-0.7-5.2
		c0.1,0.5,1.1,7-7.7,14.1c-9.1,7.4-11.1,8-10.5,15c0.6,6.9,1.6,14.3-3.4,17.3c-5,3-10.2-2.1-11.5,9.1c-1.3,11.2-2.3,15.2-5.9,17.7
		c-3.5,2.5-7.1,1.4-5.7,9.3C979.5,836.4,980.5,840.9,981.2,843.7z" class="color41aaf7 svgShape"></path><g fill="#000000" class="color000000 svgShape"><path fill="#f8ccff" d="M935.1,966.2c19.1,0,27.2-15.2,30.3-31.4c-18.7-7.1-42.3-18.5-61.8-35.6
			C902.4,910.7,898.6,966.2,935.1,966.2z" class="colorcce9ff svgShape"></path></g></g></svg>